<svg width="44" height="44" viewBox="0 0 44 44" fill="none" xmlns="http://www.w3.org/2000/svg">
<path d="M19.75 5.41943H5.16667C4.0616 5.41943 3.00179 5.85842 2.22039 6.63982C1.43899 7.42122 1 8.48103 1 9.5861V38.7528C1 39.8578 1.43899 40.9176 2.22039 41.699C3.00179 42.4804 4.0616 42.9194 5.16667 42.9194H34.3333C35.4384 42.9194 36.4982 42.4804 37.2796 41.699C38.061 40.9176 38.5 39.8578 38.5 38.7528V24.1694" stroke="black" stroke-width="2" stroke-linecap="round" stroke-linejoin="round"/>
<path d="M35.375 2.29442C36.2038 1.46562 37.3279 1 38.5 1C39.6721 1 40.7962 1.46562 41.625 2.29442C42.4538 3.12322 42.9194 4.24731 42.9194 5.41942C42.9194 6.59152 42.4538 7.71562 41.625 8.54442L21.8333 28.3361L13.5 30.4194L15.5833 22.0861L35.375 2.29442Z" stroke="black" stroke-width="2" stroke-linecap="round" stroke-linejoin="round"/>
</svg>
