<svg width="441" height="408" viewBox="0 0 441 408" fill="none" xmlns="http://www.w3.org/2000/svg">
<path d="M198.861 0.339778C163.18 3.39107 129.037 14.5791 98.8501 33.2259C84.3429 42.1085 77.6755 47.2618 64.707 59.1957C52.1048 70.8584 46.6097 77.0288 36.9383 90.3866C16.6429 118.526 4.18727 151.073 0.597116 185.451C-0.648447 197.25 0.157506 223.084 2.06248 234.475C7.33781 265.463 19.134 293.06 37.964 318.555C53.2771 339.304 75.2576 359.51 97.458 373.343C123.615 389.548 152.776 400.397 183.475 405.279C210.291 409.483 240.771 408.805 267.367 403.313C301.804 396.261 336.313 380.734 361.517 361.07C371.115 353.611 387.821 337.609 395.367 328.59C417.641 302.214 432.148 271.362 438.889 236.17C440.867 225.864 441.673 195.826 440.354 182.4C436.544 144.361 418.154 103.812 390.825 73.1638C379.175 60.0094 361.224 44.9564 345.765 35.1923C314.186 15.2572 280.776 3.93352 243.995 0.543197C237.034 -0.06706 205.602 -0.202673 198.861 0.339778ZM220.549 5.96771C220.842 7.25603 221.355 13.4264 221.648 19.6646L222.161 31.0561H224.432C225.678 31.0561 231.832 31.5307 238.06 32.0732C244.288 32.5478 249.71 32.7512 250.003 32.4122C250.882 31.6663 252.787 22.1734 252.347 21.0207C252.201 20.6139 251.029 20.207 249.856 20.207C247.951 20.207 247.585 20.5461 246.926 22.7159C246.486 24.1398 246.12 26.0384 246.12 26.9199V28.5472L238.646 28.0726C234.47 27.8014 230.001 27.3945 228.608 27.1911L226.191 26.7843L226.63 18.2407C226.923 13.562 227.29 8.27312 227.509 6.44235L227.949 3.25545L233.884 3.66229C252.347 4.88281 276.892 8.88338 276.892 10.5785C276.892 10.8498 275.28 16.7489 273.302 23.733C270.664 33.0903 269.932 36.6162 270.591 37.0908C271.397 37.7689 295.796 45.2954 297.114 45.2954C297.481 45.2954 298.946 42.9222 300.265 40.0743C302.536 35.1245 302.61 34.8532 301.364 33.9717C299.239 32.5478 297.92 33.2259 296.162 36.6162C295.283 38.3113 294.257 39.9387 293.817 40.1421C292.792 40.7524 276.16 35.1245 276.16 34.1074C276.16 33.0225 279.97 21.1563 281.875 16.1387C283.193 12.6805 283.486 12.4093 285.465 12.4771C288.176 12.6127 304.588 18.8509 318.509 25.0213C330.671 30.4458 330.158 29.1575 324.077 38.9216C318.802 47.3296 315.725 52.8897 315.725 53.9068C315.725 54.3137 318.289 56.28 321.44 58.2464C324.517 60.145 329.646 63.6031 332.869 65.9085L338.584 69.9769L340.709 67.6715C345.472 62.3148 346.79 60.145 345.984 58.9923C344.519 56.7547 342.468 57.2971 339.83 60.484C338.438 62.1792 336.972 63.5353 336.606 63.3997C335.141 63.1285 321.659 53.7712 321.586 53.0253C321.586 52.3473 327.374 43.5324 332.063 37.023C333.382 35.1923 334.774 33.7683 335.214 33.7683C335.654 33.7683 338.951 35.6669 342.541 37.9723C355.802 46.4481 372.874 60.0094 372.874 62.1114C372.874 62.6538 368.551 67.3325 363.276 72.4858L353.751 81.843L362.616 91.7428C367.672 97.3029 371.995 101.575 372.727 101.575C374.632 101.575 382.545 95.5399 382.252 94.3194C381.739 91.9462 379.761 91.7428 376.611 93.6414C374.999 94.6585 373.167 95.4721 372.581 95.4721C372.068 95.4721 369.064 92.8955 365.913 89.7086C361.737 85.4368 360.418 83.6738 360.785 82.6567C361.004 81.9787 365.034 77.9103 369.723 73.7063L378.296 66.0442L381.52 69.4345C390.312 78.3171 408.043 101.1 408.043 103.405C408.043 103.812 402.255 107.135 395.221 110.796C388.26 114.458 382.619 117.577 382.692 117.78C383.132 118.458 390.532 132.969 392.73 137.444L394.854 141.716L397.492 141.241C402.181 140.428 406.944 137.987 407.164 136.224C407.603 133.579 406.431 133.24 401.888 134.529C397.858 135.681 397.785 135.681 396.759 134.393C395.221 132.494 389.872 122.391 389.579 120.9C389.433 119.747 391.045 118.73 399.251 115C413.098 108.694 411.999 108.694 414.71 114.254C422.843 130.731 430.243 150.463 428.851 151.751C428.411 152.158 423.136 153.786 417.128 155.413C405.039 158.668 402.474 159.549 401.961 160.363C401.522 160.973 406.211 183.892 406.944 185.044C407.603 185.994 417.055 185.79 418.593 184.773C419.399 184.231 419.839 183.214 419.619 182.197C419.399 180.637 419.106 180.569 414.637 180.569H409.874L408.556 173.789C407.896 170.059 407.383 166.126 407.457 164.974C407.676 163.007 407.823 162.939 416.102 161.041C420.718 160.024 426.14 159.075 428.192 159.007L431.782 158.871L432.734 162.6C434.273 169.178 436.691 187.079 437.13 195.961L437.57 204.64H422.843H408.189L407.75 206.471C407.53 207.556 407.017 212.167 406.577 216.846C406.138 221.524 405.625 226.745 405.478 228.44L405.112 231.56L411.12 232.305C417.787 233.051 419.033 232.712 419.033 230C419.033 228.779 418.52 228.305 417.055 227.966C415.882 227.762 414.051 227.356 412.805 227.084L410.607 226.542L410.827 218.812C410.9 214.54 411.12 210.675 411.34 210.201C411.706 209.251 428.851 209.048 434.053 209.929L436.984 210.472L436.837 215.15C436.544 223.355 433.174 244.511 431.049 251.223C429.73 255.699 430.097 255.699 413.758 252.037C403.72 249.732 401.156 249.393 400.716 250.138C399.177 252.376 391.85 273.26 392.217 274.21C392.73 275.498 399.763 278.549 402.255 278.549C404.086 278.549 405.112 277.532 405.112 275.769C405.112 275.362 403.28 274.345 401.082 273.464C398.884 272.515 397.053 271.498 397.053 271.158C397.053 270.141 400.789 260.852 402.255 258.004C403.207 256.377 404.16 255.495 405.185 255.495C406.944 255.495 418.887 258.479 423.063 259.97C427.752 261.666 427.899 261.869 426.58 265.87C424.015 274.142 411.999 298.891 408.995 302.214L407.53 303.909L394.854 297.264C386.062 292.653 382.032 290.89 381.373 291.365C380.933 291.704 377.27 296.45 373.314 301.807C367.965 309.13 366.207 311.978 366.573 312.995C367.232 314.826 373.46 319.233 375.438 319.233C376.391 319.233 377.563 318.759 378.076 318.148C378.882 317.199 378.589 316.657 375.438 314.216C373.094 312.249 372.068 310.961 372.288 310.283C373.314 307.842 381.813 297.535 382.838 297.535C384.743 297.535 404.379 308.452 404.379 309.469C404.379 311.029 385.916 333.744 378.516 341.338L374.559 345.339L371.702 343.304C370.163 342.22 365.181 338.016 360.711 334.015C356.242 330.014 352.286 326.692 351.846 326.692C351.406 326.692 350.6 327.234 350.087 327.845C348.915 329.133 335.361 339.914 332.283 342.016L330.158 343.44L332.943 347.441C336.826 353.136 337.632 353.882 339.097 353.136C342.468 351.306 342.468 351.373 339.537 347.712L336.753 344.254L338.877 342.152C340.05 341.067 343.347 338.287 346.204 336.117L351.48 332.184L355.729 336.388C363.203 343.711 367.745 348.865 367.745 349.949C367.745 353.34 330.232 378.428 328.18 376.394C327.814 376.123 324.59 371.105 321 365.342C317.41 359.578 313.893 354.764 313.307 354.628C312.647 354.493 307.006 356.595 300.778 359.171C294.477 361.816 289.055 363.985 288.615 363.985C287.077 363.985 287.223 365.545 289.055 370.427C291.399 376.597 292.352 377.479 294.843 375.919L296.675 374.834L295.209 371.241C294.403 369.342 293.744 367.511 293.744 367.24C293.744 366.494 308.105 359.917 309.79 359.917C311.328 359.917 312.867 362.087 318.289 371.987C320.121 375.445 321.586 378.971 321.44 379.784C321.146 381.615 315.212 384.463 300.192 389.887C287.809 394.43 280.849 396.532 278.651 396.532C276.013 396.532 276.16 396.871 271.031 380.395C269.859 376.53 268.613 373.071 268.393 372.665C267.734 371.715 260.48 372.258 248.83 374.224L239.379 375.716L239.818 379.513C240.844 387.582 241.064 388.396 242.456 388.396C244.434 388.396 246.193 386.497 245.826 384.802C244.508 378.699 244.361 379.038 248.537 378.293C264.217 375.512 262.971 375.58 264.07 377.14C264.95 378.36 268.906 392.328 269.712 396.871C269.859 397.753 269.272 398.431 268.027 399.041C264.144 400.804 237.767 403.923 226.557 403.991H219.743V390.498V377.072L216.226 376.597C209.046 375.716 193.879 374.834 192.194 375.241C190.875 375.58 190.362 376.394 189.776 378.971C188.531 384.395 188.75 386.904 190.509 387.379C192.707 388.057 193.879 386.633 194.612 382.632L195.271 379.242L202.525 379.377C206.555 379.445 210.951 379.649 212.27 379.92L214.614 380.327V385.955C214.614 389.074 214.394 394.363 214.175 397.753L213.662 403.991H209.485C200.18 403.991 168.968 399.177 165.598 397.211C164.718 396.736 165.011 394.837 167.649 385.209C171.899 370.02 171.899 370.766 166.99 369.342C164.792 368.732 158.784 366.833 153.582 365.138L144.276 362.019L143.104 363.646C141.272 366.223 139.148 371.987 139.587 373.071C140.1 374.224 142.445 375.106 143.471 374.563C143.837 374.36 144.496 372.8 144.936 371.173C145.888 367.579 146.401 367.172 149.112 367.986C150.284 368.325 154.168 369.41 157.685 370.427C161.275 371.444 164.352 372.665 164.499 373.139C164.938 374.089 164.352 376.326 160.982 387.311C159.663 391.311 158.197 394.837 157.611 394.973C154.021 396.261 112.771 379.174 112.771 376.394C112.771 375.784 115.042 371.648 117.827 367.104C124.201 356.798 125.52 354.153 125.007 353.001C124.641 352.051 105.664 339.236 103.613 338.49C102.001 337.88 95.1866 345.406 95.1866 347.847C95.1866 350.085 98.4104 349.339 101.341 346.356C102.807 344.864 104.125 343.643 104.418 343.643C105.371 343.643 119.365 353.34 119.365 354.018C119.365 354.899 106.91 374.156 106.323 374.156C105.591 374.156 93.5747 366.087 85.6617 360.256C75.2576 352.594 68.0773 346.491 68.0773 345.339C68.0773 344.864 72.4734 340.253 77.7488 335.168C83.0973 330.014 87.4935 325.539 87.4935 325.268C87.4935 324.997 84.1231 321.132 80.0201 316.724C75.9903 312.317 71.814 307.842 70.7883 306.757L69.0298 304.723L64.1941 308.045C61.5564 309.808 59.2118 311.707 58.992 312.181C58.7722 312.656 59.2118 313.741 59.9445 314.555L61.2634 316.114L65.1466 313.47L69.0298 310.825L72.3269 314.148C74.0853 316.046 76.8695 319.165 78.5547 321.132L81.4854 324.726L77.5289 328.455C72.62 333.066 63.608 339.575 62.0693 339.575C59.3584 339.575 32.0293 305.468 33.2748 303.638C33.4214 303.366 39.063 300.18 45.7305 296.518C52.3979 292.857 57.8197 289.534 57.8197 289.195C57.8197 287.839 46.4631 266.344 45.5839 266.073C43.8255 265.395 33.6412 269.056 33.6412 270.345C33.6412 273.193 36.059 273.803 40.4551 272.108C41.9205 271.565 43.3859 271.091 43.7522 271.091C44.9245 271.091 52.2513 286.347 51.5919 287.432C51.1523 288.042 31.0035 298.213 30.1243 298.213C28.3658 298.213 13.4191 264.988 12.027 258.072C11.5874 255.766 11.6606 255.631 14.3716 254.614C15.9835 254.071 21.6984 252.444 27.1203 251.088C32.5421 249.664 37.5244 248.443 38.2571 248.24C38.9165 248.036 39.5026 247.426 39.5026 246.816C39.5026 245.731 35.2531 223.965 34.6669 222.202C34.4471 221.389 33.4214 221.185 29.7579 221.389C21.9182 221.863 20.5261 222.609 21.6252 225.864C22.0648 227.084 22.5044 227.152 26.6807 226.745L31.2966 226.338L32.3956 232.238C34.7402 244.307 34.6669 243.9 32.762 244.578C29.6114 245.663 12.4666 248.85 10.8547 248.579C9.53586 248.443 9.02298 247.765 8.58337 245.799C7.41108 240.442 4.40707 218.269 3.96746 210.946L3.45458 203.284L18.3281 203.149L33.2748 202.945L33.861 197.86C34.1541 195.08 34.8867 189.113 35.4729 184.638C36.059 180.162 36.2788 176.297 35.9858 176.026C35.6927 175.755 32.6154 175.416 29.2451 175.348C23.1638 175.145 23.0173 175.212 22.7974 176.772C22.4311 178.738 23.6767 179.552 27.1203 179.552C31.0768 179.552 31.7362 180.705 31.15 186.875C30.857 189.723 30.4906 193.588 30.1976 195.351L29.7579 198.673L20.5261 198.267C15.4706 197.995 9.75567 197.656 7.85069 197.453L4.33381 197.046V193.113C4.33381 186.4 7.92396 163.55 10.2685 154.938C10.928 152.769 11.221 152.43 13.1993 152.43C14.3716 152.43 20.5994 153.65 27.047 155.142C33.4946 156.633 39.2096 157.854 39.7224 157.854C40.4551 157.854 42.2868 153.853 45.2908 145.852C50.4196 132.291 50.4929 133.376 43.6057 130.121C38.9165 127.951 37.0848 128.087 36.3521 130.731C36.059 131.816 36.4986 132.359 38.6234 133.172C40.0888 133.715 41.9938 134.325 42.9463 134.529C43.8987 134.8 44.6314 135.139 44.6314 135.41C44.5582 135.614 43.1661 139.478 41.4809 143.954C37.8907 153.379 38.77 152.972 27.7797 149.921C24.3361 149.039 19.6469 147.751 17.3756 147.208C15.031 146.598 13.126 145.784 13.126 145.378C13.126 144.496 18.4013 131.477 21.5519 124.629C24.5559 118.052 32.0293 104.49 32.9085 103.948C33.2748 103.745 38.9898 106.321 45.5839 109.644C52.1048 113.034 57.8197 115.814 58.2594 115.814C58.699 115.814 59.7247 115.136 60.5307 114.254C63.3149 111.407 74.6715 95.5399 74.6715 94.455C74.6715 93.3023 66.0258 87.1997 64.9268 87.5388C64.4872 87.6744 63.8278 88.2847 63.3881 88.8949C62.7287 89.7764 63.2416 90.5901 65.8793 93.0989L69.1031 96.1502L64.9268 101.778C62.6555 104.897 60.0911 108.016 59.2851 108.694C57.8197 109.915 57.6732 109.915 55.1088 108.762C51.5919 107.203 39.1363 99.7439 38.0373 98.5234C37.3779 97.8453 37.5244 97.0995 38.4769 95.3365C41.5542 89.6408 59.1386 69.0276 65.5862 63.4675L67.711 61.6367L78.3349 71.1296C84.1964 76.2829 89.3252 80.5547 89.7648 80.5547C90.1311 80.5547 91.4499 79.6054 92.6955 78.4527C93.8678 77.3 98.557 73.4351 103.1 69.9091L111.379 63.3997L110.133 61.6367C106.91 56.9581 103.759 54.0424 102.22 54.2458C99.8758 54.5849 99.9491 57.0259 102.44 60.2806C105.078 63.6031 105.444 63.0607 96.652 69.9769L90.2044 75.1302L81.4854 66.5866C76.723 61.908 72.8398 57.8396 72.8398 57.5006C72.8398 55.1273 108.815 30.378 112.331 30.378C112.625 30.378 117.387 37.5655 124.421 48.4823C126.179 51.1946 127.791 53.4322 128.084 53.4322C129.256 53.3644 152.776 42.5153 153.288 41.7695C153.655 41.227 153.069 38.9894 151.823 36.1415C150.065 32.0732 149.479 31.3951 147.72 31.1917C145.082 30.9205 144.57 32.2766 146.035 36.2772C146.694 37.9723 147.207 39.8031 147.207 40.2099C147.207 41.0914 133.359 47.3296 131.454 47.3296C129.843 47.3296 119.365 30.4458 119.365 27.8014C119.365 26.2418 124.128 23.8008 135.118 19.529C145.669 15.4606 160.249 10.7142 162.301 10.7142C164.865 10.7142 165.891 12.6805 168.821 23.1905C172.045 34.6498 172.998 36.6162 175.269 36.1415C176.148 36.0059 181.863 35.0566 187.871 34.1074C203.184 31.6663 201.719 32.5478 201.206 26.174C200.693 19.9358 200.473 19.529 198.129 19.529C196.663 19.529 196.297 19.9358 196.004 21.6988C195.857 22.9193 195.711 25.0213 195.784 26.3096L195.931 28.6828L188.238 30.1068C176.881 32.2766 177.54 32.48 175.855 27.3945C173.584 20.5461 171.166 9.29022 171.825 8.67996C172.851 7.79848 182.083 6.17113 192.267 5.01842C206.408 3.45887 206.408 3.45887 213.515 3.52668L220.036 3.59448L220.549 5.96771Z" fill="white"/>
<path d="M198.495 9.69702C188.531 10.7141 180.911 11.8668 180.325 12.4093C179.738 12.9517 181.497 22.0378 182.449 23.6651C183.035 24.6822 183.841 24.9535 185.527 24.8178L187.871 24.6144L187.651 19.8002L187.432 14.9859L196.444 14.2401C204.283 13.6298 205.529 13.6298 206.335 14.5791C207.287 15.7318 207.947 21.1563 208.24 29.9711L208.386 36.0737L205.456 36.5483C203.844 36.8196 198.935 37.5655 194.465 38.1757C187.651 39.125 172.998 41.9051 169.114 42.99C168.235 43.1934 167.209 40.9558 164.059 31.3951C161.934 24.8857 159.736 18.9865 159.223 18.3084C158.344 17.2235 157.978 17.2914 152.483 18.9865C143.471 21.8344 128.744 27.8013 128.377 28.8184C127.938 29.7677 129.403 32.9546 132.334 37.6333C134.165 40.5489 134.165 40.5489 136.29 39.5318C138.781 38.3113 138.928 37.023 136.95 33.0224C136.217 31.3951 135.777 29.8355 136.144 29.4965C137.316 28.4116 151.237 24.2076 152.995 24.411C154.607 24.6144 155.193 25.5637 158.344 33.4293C160.249 38.2435 161.788 42.7865 161.861 43.4646C161.861 44.3461 160.542 45.2276 157.685 46.4481C155.34 47.3974 147.354 50.8555 139.807 54.178C132.334 57.5005 125.74 60.2128 125.153 60.2128C124.641 60.2128 121.05 55.602 117.24 49.974C113.43 44.4139 109.914 39.5318 109.401 39.125C107.789 37.9045 82.731 54.517 82.731 56.8224C82.731 57.4327 84.7093 59.8738 87.0538 62.247C90.7173 65.9763 91.5965 66.5188 92.6955 65.9085C95.553 64.349 95.6263 63.1963 92.7688 59.4669L90.0579 55.941L96.5055 51.5336C104.858 45.77 105.884 45.3632 107.276 47.0583C110.426 50.7877 119.365 63.3997 119.365 64.0777C119.365 64.4846 117.094 66.3832 114.383 68.2139C108.082 72.4179 93.8678 83.8094 91.3034 86.6573C88.8123 89.3695 89.3984 89.6408 76.2101 78.6561C68.5169 72.2145 66.1723 70.5872 65.3664 71.1296C62.3624 73.5028 46.0968 93.3023 46.0968 94.6584C46.0968 95.4721 50.1998 98.3878 53.9365 100.219C57.1603 101.778 58.992 101.507 59.7247 99.3371C60.0911 98.1844 59.5049 97.3707 56.794 95.1331L53.3504 92.4208L55.5484 89.3695C56.794 87.6743 59.5049 84.4875 61.703 82.2498L65.6595 78.1815L69.2496 80.8937C78.1151 87.6066 82.6577 91.4715 83.0974 92.7598C83.4637 93.8447 82.0716 96.0146 77.0893 102.117C73.4992 106.457 68.5169 113.17 65.9525 116.967C63.3149 120.832 60.7505 123.951 60.1643 123.951C59.5782 123.951 53.7167 121.374 47.1958 118.187C40.6017 115 34.96 112.424 34.5937 112.424C33.2748 112.424 23.2371 133.511 22.2846 138.258C21.7717 140.699 21.845 140.699 25.6549 142.258C27.853 143.072 30.7837 143.954 32.2491 144.089C34.5204 144.428 35.1065 144.225 35.8392 142.937C37.0848 140.835 36.3521 139.817 32.5421 138.258C30.7104 137.512 29.0253 136.427 28.8055 135.885C28.2926 134.664 34.3006 120.56 35.5462 120.086C36.9383 119.611 53.3504 126.595 55.7682 128.697L57.7465 130.392L53.4969 140.224C51.2256 145.649 48.2216 153.108 46.976 156.837C45.6572 160.566 44.3384 164.024 43.972 164.567C43.3859 165.38 41.0413 165.041 29.6114 162.668C22.0648 161.041 15.6171 160.024 15.2508 160.363C14.4448 161.109 11.0745 180.705 10.7814 186.333L10.5616 190.74L16.0568 190.943C23.3103 191.215 24.849 190.808 24.849 188.706C24.849 186.875 23.0173 185.655 20.1598 185.655C16.7894 185.655 16.0568 184.977 16.0568 182.129C16.0568 177.992 18.3281 167.279 19.2806 166.94C20.5261 166.533 40.8947 170.398 41.774 171.212C42.2868 171.686 42.1403 175.416 41.4076 182.671C40.7482 188.502 40.2353 196.436 40.2353 200.233C40.2353 204.708 39.9423 207.488 39.2828 208.166C38.5502 209.048 35.5462 209.387 24.1163 210.065C16.2766 210.472 9.75567 210.946 9.60913 211.082C9.31606 211.353 11.5874 229.797 12.6131 235.492C13.4924 240.239 13.4924 240.239 16.0568 240.442C19.5736 240.781 27.1203 239.222 27.5599 238.069C27.7797 237.594 27.7064 236.374 27.4866 235.424C26.9737 233.661 26.9005 233.661 21.9915 234.136L17.0092 234.611L16.5696 231.966C16.2766 230.542 15.9102 226.474 15.6171 222.88C15.1043 216.439 15.1043 216.371 16.8627 215.964C18.1815 215.693 34.3739 214.608 39.1363 214.472C39.5026 214.472 40.2353 217.388 40.7482 220.914C41.2611 224.44 42.7265 232.305 43.972 238.408C46.6097 250.952 46.4631 252.105 41.9205 253.936C40.4551 254.478 35.9125 255.834 31.8827 256.987C21.9915 259.699 20.4529 260.513 20.4529 262.886C20.4529 266.344 30.4906 289.466 32.0293 289.398C32.3223 289.398 34.8867 288.246 37.6709 286.822C41.774 284.787 42.873 283.974 43.0195 282.55C43.3859 279.634 41.774 279.092 37.2313 280.583C34.1541 281.533 33.055 281.668 32.3956 281.058C31.2233 279.973 26.3143 268.107 26.3143 266.412C26.3143 265.463 27.1936 264.649 29.0253 263.903C33.3481 262.276 46.5364 258.207 47.782 258.207C48.4414 258.207 50.2731 261.123 52.691 266.141C54.8157 270.548 58.8455 278.21 61.6297 283.16C64.4872 288.11 66.612 292.314 66.5387 292.382C65.2199 293.331 56.2078 298.688 51.2256 301.468C41.2611 306.96 41.4809 306.35 47.2691 314.215C49.98 317.945 54.3029 323.437 56.9405 326.488C62.2891 332.794 61.8495 332.727 67.9308 327.709C71.9606 324.319 72.5467 322.827 70.4219 321.064C69.3962 320.182 68.8833 320.115 67.6377 320.793C66.7585 321.267 65.0001 322.149 63.608 322.895L61.1901 324.183L58.699 321.539C55.2554 317.809 49.7602 310.622 49.7602 309.808C49.7602 309.401 54.3029 306.282 59.798 302.892L69.8358 296.654L71.3011 298.349C72.1804 299.298 74.818 302.417 77.2359 305.333C79.6537 308.248 84.8558 314.012 88.739 318.08C92.6955 322.217 95.9193 325.878 95.9193 326.285C95.9193 326.76 91.5965 331.235 86.3944 336.32C81.1191 341.406 76.8695 345.745 76.8695 346.017C76.8695 347.102 90.2044 357.544 98.7768 363.172L103.173 366.02L106.91 360.798C108.888 357.883 110.573 355.103 110.573 354.696C110.573 353.543 107.203 351.577 106.25 352.119C105.811 352.323 104.418 353.882 103.1 355.577C101.854 357.205 100.315 358.493 99.8758 358.425C97.9708 358.018 85.6618 348.119 85.6618 346.966C85.6618 346.356 89.1786 342.152 93.4282 337.609L101.195 329.336L103.466 331.031C111.452 337.066 120.904 343.372 127.351 347.034C131.381 349.339 134.752 351.645 134.752 352.187C134.752 352.729 132.114 357.951 128.89 363.782C125.666 369.613 123.029 375.038 123.029 375.851C123.029 377.208 124.421 377.953 133.14 381.479C146.841 387.107 150.944 388.531 152.043 388.124C152.556 387.921 153.875 385.141 154.974 381.954C157.098 375.58 156.952 374.834 153.215 374.834C151.97 374.834 151.237 375.648 149.772 378.564C148.819 380.598 147.574 382.293 146.987 382.293C145.156 382.293 131.088 375.58 130.649 374.495C130.355 373.953 130.575 372.461 131.088 371.241C131.967 369.342 138.781 357.679 140.54 355.238C141.053 354.492 142.958 354.967 150.651 357.747C160.029 361.205 170.36 364.46 176.515 366.02C180.105 366.901 180.105 365.681 176.515 380.259C175.269 385.277 174.317 390.498 174.463 391.786L174.683 394.159L180.544 395.312C188.824 397.007 205.749 397.753 206.628 396.465C206.994 395.922 207.287 393.21 207.287 390.362C207.287 384.666 206.628 383.785 203.331 385.005C201.499 385.616 200.693 387.379 200.693 390.904C200.693 392.057 200.4 393.21 200.034 393.413C199.155 393.956 184.647 391.854 182.962 390.972C181.936 390.498 181.643 389.548 181.643 386.836C181.717 383.31 184.647 369.749 185.6 368.935C185.893 368.664 191.901 369.003 199.081 369.613C206.188 370.224 215.42 370.969 219.596 371.173L227.07 371.647L227.143 377.479C227.143 385.751 228.242 397.889 228.975 398.567C229.341 398.838 233.591 398.702 238.426 398.228C247.365 397.346 250.003 397.007 257.037 395.719L260.993 395.041L260.553 391.244C259.821 384.938 258.795 382.293 256.89 382.293C253.739 382.293 253.227 383.175 253.593 387.921L254.033 392.328L250.589 392.735C248.757 392.939 244.361 393.278 240.918 393.549C235.422 393.888 234.543 393.82 234.177 392.871C233.884 392.193 233.444 387.04 233.224 381.276L232.711 370.834L235.203 370.495C236.595 370.291 241.504 369.681 246.12 369.071C250.735 368.528 258.648 367.172 263.704 366.087C269.565 364.867 273.009 364.46 273.375 364.867C273.595 365.274 275.573 370.969 277.698 377.682C280.922 387.718 281.875 389.752 282.974 389.752C284.512 389.752 302.097 383.785 308.911 380.937C313.38 379.038 313.453 378.971 312.794 377.072C311.548 373.885 307.299 367.715 306.126 367.511C305.54 367.443 304.441 367.783 303.635 368.257C302.316 369.206 302.316 369.274 303.782 372.936C304.661 374.97 305.101 377.004 304.808 377.411C304.368 378.157 289.421 383.649 287.956 383.649C286.71 383.649 280.995 370.02 280.116 364.663L279.677 362.222L287.296 359.307C291.399 357.679 299.752 354.018 305.687 351.17C314.845 346.83 316.677 346.152 317.263 347.034C333.895 371.647 331.917 369.274 334.921 367.783C338.438 366.02 356.828 353.001 357.781 351.645C358.733 350.221 357.927 348.865 353.165 343.711L349.941 340.185L347.816 342.016C346.717 343.033 345.765 344.186 345.765 344.593C345.765 345 347.083 346.559 348.769 348.119L351.699 350.899L348.549 353.408C346.79 354.831 343.127 357.34 340.416 359.103L335.434 362.29L333.968 360.595C331.697 357.815 321.586 343.847 321.586 343.44C321.586 343.169 325.469 340.117 330.232 336.659C334.921 333.133 341.955 327.641 345.765 324.386C349.575 321.2 352.872 318.555 353.091 318.555C353.311 318.623 355.802 320.589 358.587 323.03C368.624 331.71 373.68 335.507 374.999 335.507C377.343 335.507 395.221 314.012 394.415 312.181C393.829 310.825 385.549 305.672 383.864 305.672C382.545 305.672 380.201 307.706 380.201 308.791C380.201 309.198 381.666 310.418 383.498 311.639C385.33 312.792 386.795 314.148 386.795 314.622C386.722 315.911 385.476 317.741 380.274 323.912C375.658 329.404 375.585 329.472 374.046 328.184C371.921 326.488 357.194 314.961 356.828 314.69C356.462 314.487 357.194 313.605 365.987 302.892C368.844 299.366 373.094 293.67 375.438 290.212C378.149 286.144 380.054 283.974 380.933 283.974C381.666 283.974 387.821 286.55 394.561 289.737L406.944 295.501L409.288 291.297C410.534 288.924 413.465 282.686 415.809 277.329C420.718 266.209 420.791 266.615 413.318 264.31C408.189 262.75 406.724 262.886 405.259 265.056C404.013 266.887 404.819 267.7 409.728 269.328C411.633 270.006 413.172 270.819 413.172 271.091C413.172 272.04 410.68 277.6 408.043 282.821C405.991 286.822 405.405 287.364 404.086 286.957C399.763 285.737 383.864 278.21 383.864 277.464C383.864 276.922 384.89 274.21 386.209 271.294C387.454 268.378 390.385 260.784 392.656 254.478C396.466 244.171 397.052 242.951 398.591 242.748C399.544 242.68 405.918 243.629 412.732 244.917C419.546 246.206 425.334 247.155 425.627 247.019C426.506 246.545 427.752 241.256 429.291 231.627C430.829 222.202 431.122 216.846 430.243 216.846C429.877 216.846 427.532 216.506 424.895 216.1C418.3 215.15 416.835 215.557 416.835 218.608C416.835 221.185 416.982 221.253 422.257 221.931L425.847 222.406L425.334 226.203C425.114 228.305 424.528 232.441 424.015 235.289C423.063 241.391 423.283 241.324 414.417 239.493C409.362 238.476 399.104 235.899 398.664 235.492C398.591 235.424 398.884 233.119 399.324 230.339C399.763 227.559 400.35 219.354 400.643 212.099L401.082 198.877L404.013 198.402C405.625 198.199 412.512 197.724 419.253 197.453C425.994 197.182 431.635 196.775 431.782 196.571C432.002 196.165 430.829 185.926 429.217 174.331C428.045 165.516 428.045 165.516 420.572 167.008C417.201 167.686 414.344 168.635 414.124 169.178C413.904 169.652 413.977 170.873 414.197 171.822C414.71 173.585 414.857 173.585 418.593 173.246C420.718 173.043 422.843 173.11 423.356 173.382C424.601 174.127 425.481 177.45 425.993 184.231C426.506 189.859 426.433 190.333 425.041 191.011C423.722 191.689 402.181 193.317 401.595 192.774C401.449 192.706 400.862 189.113 400.276 184.909C399.69 180.637 398.371 173.382 397.272 168.703C396.247 164.024 395.221 159.142 395.074 157.786L394.708 155.277L399.763 153.582C402.474 152.633 408.043 150.938 412.073 149.785C421.524 147.073 421.524 147.073 421.085 143.75C420.645 140.902 412.219 120.832 410.607 118.73C409.728 117.577 409.362 117.645 405.039 119.543C402.548 120.696 399.69 122.12 398.738 122.798C397.126 123.951 397.126 124.154 398.152 126.053C399.397 128.223 400.862 128.494 403.647 127.002C407.237 125.103 408.409 125.646 410.754 130.189C411.999 132.562 413.538 136.088 414.271 138.122C415.736 142.326 416.102 141.987 407.969 144.903C400.569 147.547 393.682 149.31 392.437 148.836C391.924 148.632 390.678 146.598 389.799 144.293C388.92 142.055 385.183 134.596 381.593 127.884C376.171 117.78 375.145 115.475 375.951 114.729C376.977 113.78 397.346 101.846 398.738 101.371C399.324 101.168 399.031 100.151 397.858 98.1165C395.587 94.3194 386.282 82.3855 382.545 78.5205L379.688 75.537L376.83 77.3C375.219 78.3171 372.654 80.1479 371.115 81.4362L368.185 83.7416L369.87 85.8436C370.749 87.0641 371.848 88.0134 372.288 88.0134C372.654 88.0134 374.413 87.0641 376.171 85.9114C378.003 84.6909 379.908 83.945 380.494 84.1484C381.886 84.6909 391.191 95.4721 391.191 96.6248C391.191 97.0995 390.458 98.1165 389.579 98.9302C386.575 101.575 372.654 109.779 371.482 109.576C370.896 109.44 368.185 106.728 365.547 103.405C360.565 97.3707 357.194 93.8448 348.988 85.9792L344.372 81.5718L346.351 79.4698C347.45 78.3171 351.992 73.7741 356.389 69.3666C360.858 64.9592 364.448 61.1621 364.448 60.8908C364.448 59.8737 339.903 41.9051 338.511 41.9051C337.705 41.9051 332.283 48.4145 331.038 50.8555C330.378 52.3472 330.378 52.9575 331.111 53.7712C332.65 55.4663 334.555 54.9239 337.778 51.737C339.537 50.0418 341.149 48.7535 341.442 48.8213C342.834 49.296 356.022 59.7381 356.022 60.4162C356.022 61.0943 350.893 66.7222 343.86 73.7062L340.123 77.4356L331.038 71.2652C326.055 67.8749 318.509 63.0607 314.259 60.5518C310.01 58.043 306.493 55.8732 306.346 55.8054C306.2 55.6697 309.204 50.3131 313.014 43.8036C316.824 37.362 319.828 31.8019 319.608 31.4629C318.509 29.8355 291.619 19.2577 289.568 19.6646C288.322 19.868 285.318 26.0384 284.512 30.1068C284.146 32.1409 284.292 32.3444 286.344 32.7512C289.275 33.3614 290.374 32.48 291.986 28.615C292.645 26.9877 293.598 25.6315 294.11 25.6315C296.235 25.6315 311.328 32.0053 311.328 32.8868C311.328 33.158 308.984 37.7689 306.2 43.1256C301.437 52.0082 300.924 52.8219 299.386 52.3472C298.506 52.1438 293.964 50.5165 289.348 48.8891C280.776 45.77 273.009 43.329 267.734 41.9729C261.726 40.4811 261.872 40.9558 264.803 28.3438C266.195 22.1734 267.587 16.3421 267.807 15.3928C268.173 13.6976 267.954 13.562 264.656 12.8161C256.45 11.121 237.401 8.67993 236.009 9.15457C234.836 9.62922 234.323 11.6634 234.177 16.7489C234.03 20.2748 234.25 21.1563 235.496 21.97C237.767 23.5295 239.086 22.8515 239.818 19.868C241.137 13.901 241.211 13.901 246.632 14.3757C253.08 14.9859 258.136 16.0708 259.528 17.0201C260.48 17.766 260.407 18.9187 258.575 27.3267C256.011 38.9894 255.864 39.3962 253.886 38.9216C251.688 38.4469 238.719 37.2942 226.997 36.4806C221.575 36.1415 216.592 35.6669 215.933 35.4634C214.614 34.9888 213.881 28.5472 213.881 16.6811V8.67993L210.438 8.74774C208.46 8.81555 203.111 9.22238 198.495 9.69702ZM240.551 41.566C304.808 48.5501 358.953 86.3861 383.644 141.58C393.829 164.296 398.445 190.74 396.393 214.676C394.268 238.679 389.286 256.038 378.662 275.837C367.745 296.179 352.212 314.351 333.309 328.997C291.912 361.07 235.203 373.885 182.889 362.968C155.34 357.205 129.769 345.813 110.207 330.625C102.074 324.319 86.9806 310.011 80.3131 302.282C66.5387 286.415 55.0355 264.039 49.3939 242.273C45.3641 226.61 45.071 223.762 44.9978 203.623C44.9978 182.875 45.5839 178.603 50.4929 160.905C55.8415 141.784 67.5644 119.747 81.1191 103.609C91.8163 90.8613 108.668 76.4185 123.395 67.468C133.653 61.2299 154.094 52.0082 165.891 48.3466C175.635 45.3632 192.121 42.2441 205.089 41.0236C212.123 40.3455 232.125 40.6846 240.551 41.566Z" fill="white"/>
<path d="M302.683 119.611C300.924 120.764 300.485 123.815 301.95 125.171C302.902 126.053 305.394 126.256 307.299 125.578C308.251 125.239 308.324 125.036 307.518 124.561C306.786 124.086 306.859 123.951 307.885 123.951C309.643 123.951 309.423 122.12 307.299 120.221C305.247 118.255 304.881 118.187 302.683 119.611ZM307.958 121.578C308.178 122.12 308.031 122.595 307.665 122.595C307.225 122.595 306.932 122.12 306.932 121.578C306.932 121.035 307.079 120.561 307.225 120.561C307.372 120.561 307.665 121.035 307.958 121.578ZM302.902 123.273C303.049 124.086 302.976 124.629 302.756 124.358C302.463 124.086 302.17 123.273 302.023 122.459C301.877 121.645 301.95 121.171 302.17 121.374C302.39 121.578 302.756 122.459 302.902 123.273Z" fill="white"/>
<path d="M135.265 120.967C134.972 121.239 134.752 140.631 134.752 164.092V206.675H158.271H181.79L181.497 204.437L181.277 202.267L160.909 201.928L140.54 201.589L140.393 161.244L140.247 120.899L138.049 120.696C136.803 120.56 135.558 120.696 135.265 120.967ZM138.708 121.645C140.174 122.188 140.247 123.069 138.781 123.069C138.195 123.069 137.902 122.798 138.122 122.527C138.269 122.256 137.976 121.849 137.536 121.713C137.023 121.51 136.803 121.306 137.096 121.306C137.316 121.239 138.049 121.442 138.708 121.645ZM135.997 189.181C135.777 189.723 135.558 189.52 135.558 188.774C135.484 188.028 135.704 187.621 135.924 187.892C136.144 188.096 136.217 188.706 135.997 189.181Z" fill="white"/>
<path d="M218.278 130.392C210.951 137.241 209.339 139.004 210.218 139.546C212.27 140.767 213.515 140.157 220.842 134.325C224.872 131.138 229.268 127.748 230.587 126.867C231.832 125.917 232.931 124.9 232.931 124.697C232.931 124.29 228.315 121.917 227.583 121.917C227.509 121.917 223.333 125.714 218.278 130.392Z" fill="white"/>
<path d="M265.536 144.7C263.557 145.174 261.653 145.581 261.359 145.649C260.334 145.649 254.399 151.48 253.227 153.514C251.615 156.498 250.955 161.787 251.908 165.042C253.007 168.906 257.11 172.975 261.946 175.077C268.1 177.789 274.548 179.688 275.5 179.145C276.013 178.874 276.16 178.942 275.94 179.349C275.354 180.23 277.405 181.112 278.504 180.434C279.017 180.23 279.09 180.366 278.797 180.773C278.504 181.247 278.578 181.586 279.017 181.586C280.116 181.586 282.607 185.722 283.12 188.435C284.292 194.402 279.603 201.182 273.302 202.606C268.833 203.556 265.023 202.742 261.14 199.894C259.601 198.741 258.649 197.86 259.015 197.86C259.308 197.86 259.015 197.453 258.282 196.978C257.403 196.368 256.963 195.215 256.963 193.588C256.963 191.079 256.89 191.079 254.033 191.079C251.322 191.079 251.102 191.215 251.541 192.571C251.761 193.452 251.981 194.673 251.981 195.283C251.981 195.893 252.421 196.843 252.934 197.317C253.446 197.792 254.033 198.47 254.106 198.877C254.472 200.369 258.722 204.03 261.726 205.386C266.268 207.556 273.302 207.42 277.625 205.183C279.457 204.234 280.849 203.081 280.702 202.606C280.629 202.199 280.776 201.996 281.142 202.199C281.508 202.403 282.534 201.86 283.413 200.979C284.659 199.758 284.879 199.013 284.366 198.063C283.413 196.436 283.706 193.588 284.879 193.385C285.318 193.317 285.391 193.385 284.952 193.588C284.512 193.791 284.512 194.334 285.025 195.283C285.611 196.3 285.611 196.571 285.025 196.232C284.073 195.622 283.999 196.504 284.952 197.86C285.465 198.606 285.758 198.402 286.491 196.843C288.835 191.283 287.809 183.62 284.219 180.23C281.362 177.518 278.578 175.958 277.552 176.569C276.966 176.908 276.892 176.772 277.259 176.162C277.698 175.484 277.478 175.348 276.306 175.619C275.427 175.891 274.841 175.755 275.134 175.416C275.354 175.077 274.987 174.806 274.401 174.806C273.229 174.806 269.859 173.585 264.583 171.212C262.898 170.466 260.48 168.839 259.308 167.55C257.33 165.516 257.11 164.77 257.11 160.634C257.11 156.566 257.403 155.684 259.308 153.243C262.165 149.582 264.876 148.361 270.078 148.361C273.449 148.361 274.914 148.7 277.112 150.056C279.896 151.819 282.754 156.091 282.754 158.464C282.754 160.024 286.051 161.177 287.223 160.092C288.762 158.668 285.758 151.819 282.168 148.429C281.288 147.615 281.069 147.615 280.409 148.429C279.823 149.175 279.75 149.175 280.043 148.226C280.556 146.869 279.53 146.056 276.16 145.106C271.47 143.818 269.272 143.75 265.536 144.7ZM270.811 146.734C270.591 146.937 269.932 147.005 269.419 146.802C268.833 146.598 269.053 146.395 269.859 146.395C270.665 146.327 271.104 146.53 270.811 146.734ZM256.45 152.633C255.718 153.243 255.645 153.175 256.084 152.226C256.304 151.548 256.744 151.209 256.963 151.412C257.183 151.616 256.963 152.158 256.45 152.633ZM256.744 155.074C256.524 155.481 255.938 155.82 255.571 155.82C255.205 155.82 255.278 155.413 255.791 154.871C256.817 153.786 257.549 153.989 256.744 155.074ZM254.033 156.837C253.813 157.04 253.373 156.701 253.153 156.023C252.714 155.074 252.787 155.006 253.52 155.616C254.033 156.091 254.252 156.634 254.033 156.837ZM255.351 168.025C255.351 168.839 255.058 169.11 254.692 168.771C254.326 168.432 254.252 167.822 254.472 167.415C255.205 166.398 255.351 166.465 255.351 168.025ZM261.286 173.11C261.359 173.856 260.041 173.653 259.088 172.839C258.795 172.568 259.088 172.365 259.821 172.432C260.553 172.432 261.213 172.771 261.286 173.11ZM265.169 174.806C265.756 175.145 265.975 175.484 265.536 175.484C265.169 175.484 264.29 175.145 263.704 174.806C263.118 174.467 262.971 174.128 263.338 174.128C263.777 174.128 264.583 174.467 265.169 174.806ZM253.52 196.029C252.787 196.639 252.714 196.571 253.153 195.622C253.373 194.944 253.813 194.605 254.033 194.809C254.252 195.012 254.033 195.554 253.52 196.029Z" fill="white"/>
<path d="M182.742 145.513C182.889 146.191 183.915 148.7 185.087 151.141C186.259 153.514 187.358 155.752 187.432 156.159C187.578 156.498 188.457 158.464 189.41 160.498C190.362 162.465 191.168 164.363 191.168 164.635C191.168 164.906 191.681 165.516 192.267 165.991C192.853 166.465 193.147 167.076 193 167.415C192.56 168.025 196.883 177.043 197.836 177.382C198.129 177.518 198.202 178.06 197.982 178.671C197.689 179.349 197.836 179.62 198.275 179.349C198.788 179.01 198.935 179.349 198.715 180.094C198.568 180.84 198.788 181.79 199.374 182.332C199.887 182.875 200.4 183.756 200.547 184.298C200.62 184.841 201.06 185.926 201.426 186.672C201.792 187.418 202.525 189.113 203.111 190.401C203.697 191.689 205.749 196.097 207.58 200.165C210.291 205.996 210.877 207.895 210.365 208.98C209.925 209.794 208.386 212.981 206.848 216.167C205.309 219.354 203.99 222.067 203.844 222.202C203.77 222.338 202.012 221.05 199.961 219.354C185.453 207.285 161.714 208.031 147.94 220.914C143.69 224.847 139.148 232.102 137.682 237.12C136.29 242.069 136.657 251.969 138.415 256.919C145.815 277.6 171.386 287.093 192.78 277.125C195.564 275.837 199.374 273.125 202.452 270.277L207.507 265.598L205.163 263.361L202.818 261.123L198.788 264.988C192.56 271.091 182.889 275.023 174.317 275.159C170.873 275.159 163.546 273.396 160.982 271.904L158.93 270.684L173.071 258.207C203.184 231.559 206.921 227.966 208.02 224.847C208.606 223.219 209.046 221.524 208.973 221.117C208.973 220.643 209.192 220.371 209.485 220.575C210.291 221.05 211.097 218.948 210.438 218.066C210.218 217.591 210.365 217.524 210.804 217.795C211.317 218.066 211.757 217.863 211.757 217.252C211.903 215.557 211.977 215.354 214.541 210.811C215.933 208.37 216.739 205.929 216.519 205.183C216.373 204.437 216.373 204.03 216.592 204.234C217.252 204.776 218.937 202.471 219.01 201.047C219.01 200.369 219.523 199.351 220.109 198.741C220.842 198.131 221.062 197.182 220.769 196.368C220.549 195.554 220.622 195.147 220.989 195.351C221.355 195.554 224.725 189.113 228.462 181.044C232.199 172.975 236.082 164.635 237.108 162.6C239.819 157.176 240.918 153.989 240.405 153.379C240.112 153.108 240.331 153.108 240.844 153.379C241.284 153.65 241.723 153.514 241.723 153.108C241.723 152.701 242.529 150.666 243.555 148.632C244.581 146.598 245.387 144.767 245.387 144.632C245.387 144.428 244.215 144.293 242.823 144.293C240.258 144.293 240.185 144.428 237.327 149.988C235.715 153.175 234.397 155.888 234.397 156.159C234.397 156.362 233.371 158.532 232.199 160.973C230.953 163.414 230.147 165.719 230.44 166.126C230.733 166.533 230.66 166.669 230.22 166.465C229.561 166.059 227.216 171.144 227.656 172.229C227.729 172.568 227.509 172.771 227.216 172.771C226.337 172.771 224.798 176.162 225.238 176.908C225.531 177.247 225.385 177.518 225.018 177.518C224.066 177.518 218.937 189.045 219.523 189.926C219.743 190.265 219.67 190.401 219.23 190.198C218.864 189.994 217.545 191.961 216.373 194.605C214.175 199.623 212.416 201.25 212.416 198.402C212.416 197.114 212.27 197.046 211.61 197.86C211.024 198.673 210.951 198.606 211.244 197.453C211.537 196.707 210.951 194.673 209.998 192.706C209.046 190.876 207.654 187.96 206.921 186.197C206.188 184.298 205.309 183.146 204.869 183.417C204.43 183.688 204.283 183.417 204.576 182.671C204.869 181.993 204.357 180.162 203.331 178.331C202.378 176.569 201.353 174.399 201.06 173.449C200.766 172.5 199.594 169.923 198.422 167.686C197.323 165.448 195.711 161.855 194.832 159.685C193.952 157.583 192.927 155.82 192.56 155.82C192.121 155.82 191.974 155.549 192.194 155.21C192.78 154.328 189.337 147.615 188.604 148.225C188.238 148.497 188.238 148.293 188.531 147.886C189.556 146.259 187.578 144.293 184.94 144.293C182.962 144.293 182.523 144.496 182.742 145.513ZM193.513 160.024C193 160.498 192.634 160.566 192.634 160.159C192.634 159.753 192.853 159.21 193.147 159.007C193.366 158.735 193.806 158.668 194.026 158.871C194.172 159.074 193.952 159.617 193.513 160.024ZM197.762 168.703C198.202 169.449 198.349 170.059 198.202 170.059C197.982 170.059 197.469 169.449 197.03 168.703C196.59 167.957 196.444 167.347 196.59 167.347C196.81 167.347 197.323 167.957 197.762 168.703ZM224.872 181.586C225.311 182.332 225.458 182.942 225.311 182.942C225.092 182.942 224.579 182.332 224.139 181.586C223.699 180.84 223.553 180.23 223.699 180.23C223.919 180.23 224.432 180.84 224.872 181.586ZM219.523 195.283C219.303 195.826 219.084 195.622 219.084 194.876C219.01 194.13 219.23 193.724 219.45 193.995C219.67 194.198 219.743 194.808 219.523 195.283ZM210.218 214.879C210.218 215.286 209.925 215.354 209.485 215.15C209.119 214.947 208.753 214.404 208.753 214.065C208.753 213.659 209.119 213.591 209.485 213.794C209.925 213.998 210.218 214.54 210.218 214.879ZM186.04 219.015C191.242 221.185 197.762 225.999 197.762 227.627C197.762 228.305 194.685 231.492 191.022 234.814C187.285 238.069 177.54 246.884 169.408 254.41L154.534 267.972L151.603 265.327C147.793 261.869 143.91 254.681 143.251 250.003C141.712 238.272 148.526 225.796 159.516 220.371C165.378 217.456 168.382 216.846 175.782 217.049C180.618 217.185 182.889 217.659 186.04 219.015Z" fill="white"/>
<path d="M301.804 175.484C301.804 205.793 301.877 206.675 303.196 206.675C304.002 206.675 304.808 206.268 304.954 205.793C305.247 205.115 305.394 205.115 305.394 205.793C305.467 206.268 305.98 206.675 306.566 206.675C307.519 206.675 307.665 202.742 307.665 175.484V144.293H304.734H301.804V175.484Z" fill="white"/>
<path d="M71.0081 188.367V191.757H84.5627H98.1174L98.2639 236.306L98.4837 280.923H101.781H105.078L105.298 236.306L105.444 191.757H118.999H132.554V188.367V184.977H101.781H71.0081V188.367Z" fill="white"/>
<path d="M289.714 187.146C289.495 187.621 289.421 208.912 289.495 234.475L289.714 280.923H292.645H295.576L295.942 260.581C296.308 241.595 296.455 239.968 297.994 236.442C301.511 228.305 306.566 223.152 314.992 219.354C319.388 217.32 320.267 217.185 327.448 217.185C334.774 217.185 335.434 217.32 340.27 219.49C349.941 223.897 356.755 232.441 358.22 242.07C358.587 244.443 358.953 254.207 358.953 263.835V281.329L362.104 281.126L365.181 280.923V260.242C365.181 244.511 364.961 238.747 364.155 236.17C359.319 220.236 344.006 209.794 327.448 210.946C321.366 211.421 315.285 213.116 310.376 215.829C306.346 217.998 300.338 223.491 298.433 226.678C297.701 227.966 296.821 229.051 296.528 229.051C296.162 229.051 295.942 219.422 295.942 207.692V186.333H293.011C291.326 186.333 289.861 186.672 289.714 187.146Z" fill="white"/>
<path d="M245.387 211.421C234.25 213.252 223.773 220.439 218.571 229.864C213.295 239.493 213.295 252.512 218.571 262.14C226.41 276.447 244.288 283.974 261.433 280.244C269.712 278.414 278.797 272.854 282.974 267.022C284.146 265.463 284.146 265.327 281.948 263.225L279.677 261.055L274.841 265.598C269.272 270.819 264.07 273.464 257.183 274.549C247.585 276.108 236.741 272.65 230.074 265.937C219.89 255.631 218.424 241.798 226.264 230.542C229.781 225.593 233.518 222.609 239.526 219.965C243.995 217.998 244.801 217.863 252.714 217.863C260.554 217.863 261.433 217.998 265.536 219.829C268.32 221.05 271.764 223.558 274.841 226.406L279.677 230.949L282.021 228.712L284.366 226.474L282.314 223.965C279.384 220.371 271.617 215.083 266.708 213.387C259.821 211.014 252.347 210.336 245.387 211.421Z" fill="white"/>
</svg>
