<svg width="32" height="32 " viewBox="0 0 31 30" fill="none" xmlns="http://www.w3.org/2000/svg">
<path d="M13.9789 0.0249857C11.4707 0.249345 9.0706 1.072 6.94864 2.44308C5.92887 3.09622 5.46018 3.47513 4.54856 4.35263C3.6627 5.21018 3.27642 5.66388 2.59657 6.64608C1.16991 8.71517 0.294343 11.1083 0.0419742 13.6361C-0.0455824 14.5036 0.0110718 16.4032 0.144982 17.2408C0.51581 19.5193 1.34502 21.5485 2.66867 23.4232C3.7451 24.9488 5.29022 26.4346 6.85079 27.4517C8.68947 28.6433 10.7393 29.441 12.8973 29.8C14.7824 30.1091 16.9249 30.0592 18.7945 29.6554C21.2152 29.1369 23.641 27.9951 25.4128 26.5492C26.0875 26.0008 27.2618 24.8242 27.7923 24.1611C29.358 22.2216 30.3778 19.9531 30.8516 17.3655C30.9907 16.6076 31.0473 14.3989 30.9546 13.4118C30.6868 10.6147 29.394 7.63326 27.4729 5.37969C26.654 4.41246 25.3922 3.30562 24.3054 2.58767C22.0856 1.12185 19.7371 0.289231 17.1516 0.039943C16.6623 -0.0049289 14.4528 -0.0149004 13.9789 0.0249857ZM15.5034 0.438804C15.524 0.533533 15.5601 0.987238 15.5807 1.44593L15.6167 2.28354H15.7764C15.864 2.28354 16.2966 2.31844 16.7344 2.35832C17.1722 2.39322 17.5533 2.40818 17.5739 2.38325C17.6357 2.32841 17.7696 1.6304 17.7387 1.54564C17.7284 1.51573 17.646 1.48581 17.5636 1.48581C17.4297 1.48581 17.4039 1.51074 17.3576 1.67029C17.3267 1.77499 17.3009 1.91459 17.3009 1.9794V2.09906L16.7756 2.06416C16.482 2.04422 16.1678 2.01431 16.07 1.99935L15.9 1.96943L15.9309 1.34123C15.9515 0.997209 15.9773 0.60832 15.9927 0.473704L16.0236 0.239373L16.4408 0.269288C17.7387 0.359032 19.4641 0.653192 19.4641 0.777836C19.4641 0.797779 19.3508 1.23154 19.2117 1.74507C19.0263 2.43311 18.9748 2.69237 19.0212 2.72727C19.0778 2.77713 20.7929 3.33055 20.8856 3.33055C20.9113 3.33055 21.0144 3.15604 21.1071 2.94664C21.2667 2.58268 21.2719 2.56274 21.1843 2.49792C21.035 2.39322 20.9422 2.44308 20.8186 2.69237C20.7568 2.81701 20.6847 2.93667 20.6538 2.95163C20.5817 2.9965 19.4126 2.58268 19.4126 2.5079C19.4126 2.42812 19.6804 1.55561 19.8143 1.18667C19.907 0.932394 19.9276 0.912451 20.0667 0.917437C20.2572 0.927409 21.4109 1.3861 22.3895 1.8398C23.2445 2.23866 23.2084 2.14393 22.7809 2.86188C22.4101 3.48012 22.1938 3.88895 22.1938 3.96374C22.1938 3.99365 22.3741 4.13824 22.5955 4.28283C22.8118 4.42243 23.1724 4.6767 23.399 4.84622L23.8007 5.14536L23.9501 4.97585C24.2848 4.58197 24.3776 4.42243 24.3209 4.33767C24.2179 4.17314 24.0737 4.21303 23.8883 4.44736C23.7904 4.572 23.6874 4.67172 23.6617 4.66175C23.5586 4.6418 22.611 3.95377 22.6058 3.89892C22.6058 3.84907 23.0127 3.20092 23.3423 2.72228C23.435 2.58767 23.5329 2.48297 23.5638 2.48297C23.5947 2.48297 23.8265 2.62257 24.0788 2.79208C25.0111 3.4153 26.2111 4.41246 26.2111 4.56702C26.2111 4.6069 25.9072 4.95092 25.5364 5.32984L24.8668 6.01787L25.49 6.74579C25.8454 7.15463 26.1493 7.46873 26.2008 7.46873C26.3347 7.46873 26.8909 7.025 26.8703 6.93525C26.8343 6.76075 26.6952 6.74579 26.4738 6.8854C26.3605 6.96018 26.2317 7.02001 26.1905 7.02001C26.1544 7.02001 25.9433 6.83055 25.7218 6.59622C25.4282 6.28212 25.3355 6.15249 25.3613 6.0777C25.3767 6.02784 25.66 5.7287 25.9896 5.41958L26.5922 4.85619L26.8188 5.10548C27.4369 5.75861 28.6833 7.43383 28.6833 7.60335C28.6833 7.63326 28.2764 7.87756 27.782 8.14679C27.2927 8.41602 26.8961 8.64537 26.9012 8.66033C26.9321 8.71018 27.4523 9.77714 27.6068 10.1062L27.7562 10.4203L27.9416 10.3854C28.2712 10.3256 28.606 10.1461 28.6215 10.0165C28.6524 9.82201 28.57 9.79708 28.2506 9.89181C27.9674 9.97657 27.9622 9.97657 27.8901 9.88184C27.782 9.74224 27.406 8.99936 27.3854 8.88967C27.3751 8.80491 27.4884 8.73013 28.0652 8.45591C29.0387 7.99223 28.9614 7.99223 29.152 8.40107C29.7237 9.61261 30.2438 11.0635 30.146 11.1582C30.1151 11.1881 29.7443 11.3078 29.3219 11.4274C28.4721 11.6667 28.2918 11.7316 28.2558 11.7914C28.2249 11.8363 28.5545 13.5214 28.606 13.6062C28.6524 13.676 29.3168 13.661 29.4249 13.5863C29.4816 13.5464 29.5125 13.4716 29.497 13.3968C29.4816 13.2821 29.461 13.2771 29.1468 13.2771H28.812L28.7193 12.7786C28.673 12.5044 28.6369 12.2152 28.6421 12.1304C28.6575 11.9858 28.6678 11.9808 29.2498 11.8412C29.5743 11.7665 29.9554 11.6967 30.0996 11.6917L30.352 11.6817L30.419 11.9559C30.5271 12.4395 30.6971 13.7558 30.728 14.4089L30.7589 15.0471H29.7237H28.6936L28.6627 15.1817C28.6472 15.2615 28.6112 15.6005 28.5803 15.9445C28.5494 16.2885 28.5133 16.6724 28.503 16.7971L28.4773 17.0264L28.8996 17.0813C29.3683 17.1361 29.4558 17.1112 29.4558 16.9118C29.4558 16.822 29.4198 16.7871 29.3168 16.7622C29.2344 16.7472 29.1056 16.7173 29.0181 16.6974L28.8635 16.6575L28.879 16.0891C28.8841 15.775 28.8996 15.4908 28.915 15.4559C28.9408 15.3861 30.146 15.3712 30.5117 15.436L30.7177 15.4759L30.7074 15.8199C30.6868 16.4232 30.4499 17.9787 30.3005 18.4723C30.2078 18.8014 30.2335 18.8014 29.085 18.5321C28.3794 18.3626 28.1991 18.3377 28.1682 18.3925C28.0601 18.5571 27.545 20.0927 27.5708 20.1625C27.6068 20.2572 28.1013 20.4816 28.2764 20.4816C28.4052 20.4816 28.4773 20.4068 28.4773 20.2772C28.4773 20.2472 28.3485 20.1725 28.194 20.1076C28.0395 20.0378 27.9107 19.9631 27.9107 19.9381C27.9107 19.8633 28.1734 19.1803 28.2764 18.9709C28.3434 18.8512 28.4103 18.7864 28.4824 18.7864C28.606 18.7864 29.4455 19.0058 29.7391 19.1155C30.0687 19.2401 30.079 19.2551 29.9863 19.5492C29.8061 20.1575 28.9614 21.9773 28.7502 22.2216L28.6472 22.3462L27.7562 21.8576C27.1382 21.5186 26.8549 21.389 26.8085 21.4239C26.7776 21.4488 26.5201 21.7978 26.242 22.1917C25.866 22.7302 25.7424 22.9396 25.7682 23.0143C25.8145 23.149 26.2523 23.473 26.3914 23.473C26.4583 23.473 26.5407 23.4381 26.5768 23.3933C26.6334 23.3235 26.6128 23.2836 26.3914 23.1041C26.2265 22.9595 26.1544 22.8648 26.1699 22.8149C26.242 22.6354 26.8394 21.8776 26.9115 21.8776C27.0455 21.8776 28.4258 22.6803 28.4258 22.7551C28.4258 22.8698 27.1279 24.54 26.6077 25.0984L26.3296 25.3925L26.1287 25.243C26.0205 25.1632 25.6703 24.8541 25.3561 24.5599C25.042 24.2658 24.7638 24.0215 24.7329 24.0215C24.702 24.0215 24.6454 24.0613 24.6093 24.1062C24.5269 24.201 23.5741 24.9937 23.3578 25.1482L23.2084 25.2529L23.4041 25.5471C23.6771 25.9659 23.7338 26.0208 23.8368 25.9659C24.0737 25.8313 24.0737 25.8363 23.8677 25.567L23.672 25.3128L23.8213 25.1582C23.9037 25.0784 24.1355 24.874 24.3364 24.7145L24.7072 24.4253L25.0059 24.7344C25.5312 25.2729 25.8506 25.6518 25.8506 25.7316C25.8506 25.9809 23.2136 27.8256 23.0694 27.676C23.0436 27.6561 22.817 27.2871 22.5646 26.8633C22.3122 26.4396 22.065 26.0856 22.0238 26.0756C21.9775 26.0656 21.5809 26.2202 21.1431 26.4096C20.7002 26.6041 20.319 26.7636 20.2881 26.7636C20.18 26.7636 20.1903 26.8783 20.319 27.2373C20.4839 27.691 20.5508 27.7558 20.7259 27.6411L20.8547 27.5614L20.7517 27.2971C20.695 27.1575 20.6487 27.0229 20.6487 27.0029C20.6487 26.9481 21.6581 26.4645 21.7766 26.4645C21.8848 26.4645 21.9929 26.624 22.3741 27.352C22.5028 27.6062 22.6058 27.8655 22.5955 27.9253C22.5749 28.0599 22.1577 28.2693 21.1019 28.6682C20.2315 29.0022 19.7422 29.1568 19.5877 29.1568C19.4023 29.1568 19.4126 29.1817 19.0521 27.9702C18.9696 27.686 18.8821 27.4317 18.8666 27.4018C18.8203 27.332 18.3104 27.3719 17.4915 27.5165L16.8271 27.6262L16.858 27.9054C16.9301 28.4987 16.9455 28.5585 17.0434 28.5585C17.1825 28.5585 17.3061 28.4189 17.2803 28.2943C17.1876 27.8455 17.1773 27.8705 17.4709 27.8156C18.5731 27.6112 18.4855 27.6162 18.5628 27.7309C18.6246 27.8206 18.9027 28.8477 18.9593 29.1817C18.9696 29.2465 18.9284 29.2964 18.8409 29.3413C18.5679 29.4709 16.7138 29.7002 15.9258 29.7052H15.4468V28.7131V27.7259L15.1996 27.691C14.6948 27.6262 13.6287 27.5614 13.5102 27.5913C13.4175 27.6162 13.3815 27.676 13.3403 27.8655C13.2527 28.2643 13.2682 28.4488 13.3918 28.4837C13.5463 28.5336 13.6287 28.4289 13.6802 28.1347L13.7266 27.8854L14.2364 27.8954C14.5197 27.9004 14.8287 27.9153 14.9214 27.9353L15.0863 27.9652V28.379C15.0863 28.6084 15.0708 28.9973 15.0554 29.2465L15.0193 29.7052H14.7257C14.0716 29.7052 11.8776 29.3512 11.6406 29.2067C11.5788 29.1718 11.5994 29.0322 11.7849 28.3242C12.0836 27.2074 12.0836 27.2622 11.7385 27.1575C11.584 27.1126 11.1617 26.973 10.796 26.8484L10.1419 26.619L10.0595 26.7387C9.93072 26.9282 9.78136 27.352 9.81226 27.4317C9.84831 27.5165 10.0131 27.5813 10.0852 27.5414C10.111 27.5265 10.1573 27.4118 10.1882 27.2921C10.2552 27.0279 10.2912 26.998 10.4818 27.0578C10.5642 27.0827 10.8372 27.1625 11.0844 27.2373C11.3368 27.3121 11.5531 27.4018 11.5634 27.4367C11.5943 27.5065 11.5531 27.671 11.3162 28.4787C11.2235 28.7729 11.1205 29.0322 11.0793 29.0421C10.8269 29.1369 7.92722 27.8804 7.92722 27.676C7.92722 27.6312 8.08688 27.327 8.28259 26.993C8.73068 26.2351 8.82338 26.0407 8.78733 25.9559C8.76158 25.8861 7.42763 24.9438 7.28342 24.889C7.17011 24.8441 6.69112 25.3975 6.69112 25.577C6.69112 25.7416 6.91774 25.6867 7.12376 25.4673C7.22676 25.3576 7.31947 25.2679 7.34007 25.2679C7.40703 25.2679 8.39075 25.9809 8.39075 26.0307C8.39075 26.0955 7.51519 27.5115 7.47398 27.5115C7.42248 27.5115 6.57782 26.9182 6.02157 26.4894C5.29022 25.926 4.78548 25.4773 4.78548 25.3925C4.78548 25.3576 5.0945 25.0186 5.46533 24.6447C5.84131 24.2658 6.15033 23.9367 6.15033 23.9168C6.15033 23.8968 5.91342 23.6126 5.62499 23.2886C5.34172 22.9645 5.04815 22.6354 4.97605 22.5556L4.85244 22.4061L4.51251 22.6504C4.3271 22.78 4.16228 22.9196 4.14683 22.9545C4.13138 22.9894 4.16228 23.0692 4.21379 23.129L4.30649 23.2437L4.57947 23.0492L4.85244 22.8548L5.0842 23.0991C5.20781 23.2387 5.40353 23.468 5.52199 23.6126L5.728 23.8769L5.44988 24.1511C5.1048 24.4901 4.47131 24.9688 4.36315 24.9688C4.17258 24.9688 2.25149 22.4609 2.33905 22.3263C2.34935 22.3064 2.74593 22.072 3.21461 21.8028C3.6833 21.5336 4.06443 21.2893 4.06443 21.2643C4.06443 21.1646 3.26612 19.5841 3.20431 19.5642C3.0807 19.5143 2.3648 19.7836 2.3648 19.8783C2.3648 20.0877 2.53476 20.1326 2.84378 20.0079C2.94679 19.968 3.0498 19.9331 3.07555 19.9331C3.15796 19.9331 3.673 21.0549 3.62664 21.1347C3.59574 21.1796 2.17938 21.9274 2.11758 21.9274C1.99397 21.9274 0.943292 19.4844 0.845435 18.9759C0.814532 18.8064 0.819683 18.7964 1.01025 18.7216C1.12356 18.6817 1.52529 18.5621 1.90641 18.4623C2.28754 18.3576 2.63777 18.2679 2.68927 18.2529C2.73563 18.238 2.77683 18.1931 2.77683 18.1482C2.77683 18.0685 2.47811 16.468 2.4369 16.3384C2.42145 16.2786 2.34935 16.2636 2.09183 16.2786C1.54074 16.3135 1.44288 16.3683 1.52014 16.6076C1.55104 16.6974 1.58194 16.7024 1.87551 16.6724L2.19999 16.6425L2.27724 17.0763C2.44205 17.9638 2.4369 17.9338 2.30299 17.9837C2.08153 18.0635 0.876337 18.2978 0.763028 18.2779C0.670321 18.2679 0.634269 18.218 0.603366 18.0734C0.52096 17.6796 0.309794 16.0492 0.278892 15.5108L0.242839 14.9474L1.28837 14.9374L2.33905 14.9224L2.38025 14.5485C2.40085 14.3441 2.45236 13.9054 2.49356 13.5763C2.53476 13.2472 2.55021 12.963 2.52961 12.9431C2.50901 12.9232 2.29269 12.8982 2.05578 12.8932C1.62829 12.8783 1.61799 12.8833 1.60254 12.9979C1.57679 13.1425 1.66435 13.2024 1.90641 13.2024C2.18454 13.2024 2.23089 13.2871 2.18969 13.7408C2.16908 13.9502 2.14333 14.2344 2.12273 14.364L2.09183 14.6083L1.44288 14.5784C1.0875 14.5585 0.685773 14.5336 0.551862 14.5186L0.304644 14.4887V14.1995C0.304644 13.7059 0.557013 12.0257 0.721825 11.3925C0.768179 11.233 0.78878 11.2081 0.927841 11.2081C1.01025 11.2081 1.44803 11.2978 1.90126 11.4075C2.3545 11.5172 2.75623 11.6069 2.79228 11.6069C2.84378 11.6069 2.97254 11.3128 3.18371 10.7244C3.54424 9.72728 3.54939 9.80705 3.06525 9.56774C2.73563 9.40819 2.60687 9.41816 2.55536 9.61261C2.53476 9.69238 2.56566 9.73227 2.71503 9.7921C2.81803 9.83198 2.95194 9.87685 3.0189 9.89181C3.08585 9.91175 3.13736 9.93668 3.13736 9.95663C3.13221 9.97158 3.03435 10.2558 2.91589 10.5848C2.66352 11.2779 2.72533 11.2479 1.95277 11.0236C1.7107 10.9588 1.38107 10.864 1.22141 10.8241C1.0566 10.7793 0.92269 10.7194 0.92269 10.6895C0.92269 10.6247 1.29352 9.66745 1.51498 9.16389C1.72615 8.68027 2.25149 7.68312 2.31329 7.64323C2.33905 7.62827 2.74078 7.81773 3.20431 8.06204C3.6627 8.31132 4.06443 8.51574 4.09533 8.51574C4.12623 8.51574 4.19834 8.46588 4.25499 8.40107C4.45071 8.19167 5.24902 7.025 5.24902 6.94522C5.24902 6.86047 4.64127 6.41175 4.56401 6.43668C4.53311 6.44665 4.48676 6.49152 4.45586 6.53639C4.4095 6.60121 4.44556 6.66104 4.63097 6.84551L4.85759 7.06987L4.56401 7.48369C4.40435 7.71303 4.22409 7.94238 4.16743 7.99223C4.06443 8.08198 4.05413 8.08198 3.87386 7.99722C3.62664 7.88255 2.75108 7.33411 2.67382 7.24437C2.62747 7.19451 2.63777 7.13967 2.70472 7.01004C2.92104 6.59124 4.15713 5.07556 4.61037 4.66673L4.75973 4.53212L5.50653 5.23012C5.91857 5.60904 6.27909 5.92314 6.30999 5.92314C6.33575 5.92314 6.42845 5.85334 6.51601 5.76858C6.59842 5.68383 6.92804 5.39964 7.24737 5.14038L7.82936 4.66175L7.7418 4.53212C7.51519 4.1881 7.29372 3.97371 7.18556 3.98867C7.02075 4.0136 7.0259 4.19308 7.20101 4.4324C7.38643 4.6767 7.41218 4.63682 6.79413 5.14536L6.3409 5.52428L5.728 4.89608C5.39323 4.55206 5.12026 4.25291 5.12026 4.22798C5.12026 4.05348 7.6491 2.23368 7.89631 2.23368C7.91692 2.23368 8.25169 2.76217 8.74613 3.56488C8.86974 3.76431 8.98305 3.92884 9.00365 3.92884C9.08605 3.92385 10.7393 3.12613 10.7754 3.07129C10.8011 3.0314 10.7599 2.86687 10.6724 2.65747C10.5488 2.35832 10.5076 2.30847 10.384 2.29351C10.1985 2.27356 10.1625 2.37328 10.2655 2.66744C10.3118 2.79208 10.3479 2.9267 10.3479 2.95661C10.3479 3.02143 9.37448 3.48012 9.24057 3.48012C9.12726 3.48012 8.39075 2.23866 8.39075 2.04422C8.39075 1.92955 8.72553 1.75006 9.49808 1.43596C10.2397 1.13681 11.2647 0.787807 11.4089 0.787807C11.5891 0.787807 11.6612 0.932394 11.8673 1.70519C12.0939 2.54778 12.1608 2.69237 12.3205 2.65747C12.3823 2.6475 12.784 2.5777 13.2064 2.5079C14.2828 2.32841 14.1798 2.39322 14.1437 1.92456C14.1077 1.46587 14.0922 1.43596 13.9274 1.43596C13.8244 1.43596 13.7987 1.46587 13.7781 1.5955C13.7678 1.68524 13.7575 1.8398 13.7626 1.93453L13.7729 2.10903L13.2321 2.21374C12.4338 2.37328 12.4802 2.38824 12.3617 2.01431C12.202 1.51074 12.0321 0.683106 12.0784 0.638234C12.1505 0.57342 12.7995 0.453761 13.5154 0.369003C14.5094 0.254331 14.5094 0.254331 15.009 0.259317L15.4674 0.264302L15.5034 0.438804Z" fill="#EAEAEA"/>
<path d="M13.9752 1.07302C13.2908 1.14604 12.7674 1.22879 12.7272 1.26773C12.6869 1.30667 12.8077 1.95896 12.8731 2.07579C12.9134 2.14881 12.9687 2.16828 13.0845 2.15855L13.2455 2.14394L13.2304 1.79833L13.2153 1.45271L13.8343 1.39916C14.3727 1.35535 14.4583 1.35535 14.5136 1.4235C14.5791 1.50626 14.6244 1.89568 14.6445 2.5285L14.6545 2.96661L14.4533 3.00068C14.3425 3.02015 14.0054 3.0737 13.6984 3.11751C13.2304 3.18566 12.2239 3.38524 11.9572 3.46313C11.8968 3.47773 11.8264 3.31709 11.61 2.63073C11.464 2.16342 11.3131 1.73991 11.2778 1.69123C11.2174 1.61335 11.1923 1.61822 10.8149 1.73991C10.1959 1.94436 9.18438 2.37273 9.15922 2.44575C9.12902 2.5139 9.22967 2.74269 9.43096 3.07857C9.55677 3.28789 9.55677 3.28789 9.70271 3.21487C9.87381 3.12725 9.88388 3.03476 9.748 2.74756C9.69768 2.63073 9.66749 2.51877 9.69265 2.49443C9.77316 2.41654 10.7293 2.11474 10.8501 2.12934C10.9608 2.14394 11.0011 2.21209 11.2174 2.77676C11.3483 3.12238 11.454 3.44852 11.459 3.4972C11.459 3.56048 11.3684 3.62377 11.1722 3.71139C11.0111 3.77954 10.4626 4.0278 9.94427 4.26632C9.43097 4.50485 8.97805 4.69956 8.93779 4.69956C8.90257 4.69956 8.65598 4.36855 8.3943 3.96452C8.13262 3.56535 7.89107 3.21487 7.85584 3.18566C7.74513 3.09804 6.02406 4.29066 6.02406 4.45617C6.02406 4.49998 6.15994 4.67522 6.32097 4.84559C6.57259 5.11333 6.63298 5.15227 6.70846 5.10846C6.90473 4.9965 6.90976 4.91374 6.7135 4.64601L6.5273 4.39289L6.97015 4.07648C7.54383 3.66271 7.61429 3.6335 7.7099 3.7552C7.92629 4.02293 8.54024 4.92835 8.54024 4.97702C8.54024 5.00623 8.38424 5.14253 8.19804 5.27396C7.76526 5.57577 6.78898 6.39357 6.61285 6.59802C6.44175 6.79273 6.48201 6.8122 5.57618 6.02361C5.04779 5.56117 4.88675 5.44434 4.8314 5.48328C4.62507 5.65366 3.50789 7.07506 3.50789 7.17242C3.50789 7.23083 3.7897 7.44015 4.04635 7.57158C4.26777 7.68354 4.39358 7.66407 4.44391 7.5083C4.46907 7.42555 4.42881 7.36713 4.24261 7.2065L4.00609 7.01178L4.15706 6.79273C4.24261 6.67103 4.42881 6.44224 4.57978 6.28161L4.85153 5.98954L5.09811 6.18425C5.70703 6.66617 6.01903 6.94363 6.04923 7.03612C6.07439 7.11401 5.97877 7.26978 5.63657 7.70788C5.38999 8.01943 5.04779 8.50134 4.87166 8.77394C4.69049 9.05141 4.51436 9.27533 4.4741 9.27533C4.43384 9.27533 4.03125 9.09035 3.58337 8.86156C3.13046 8.63277 2.74297 8.44779 2.71781 8.44779C2.62723 8.44779 1.93779 9.96169 1.87237 10.3024C1.83715 10.4777 1.84218 10.4777 2.10386 10.5896C2.25483 10.6481 2.45613 10.7113 2.55677 10.7211C2.71278 10.7454 2.75304 10.7308 2.80336 10.6383C2.88891 10.4874 2.83859 10.4144 2.5769 10.3024C2.45109 10.2489 2.33535 10.171 2.32025 10.1321C2.28503 10.0444 2.69768 9.03194 2.78323 8.99786C2.87884 8.96379 4.00609 9.46517 4.17216 9.61608L4.30803 9.73777L4.01616 10.4436C3.86015 10.833 3.65383 11.3685 3.56828 11.6362C3.47769 11.904 3.38711 12.1522 3.36195 12.1912C3.32169 12.2496 3.16066 12.2252 2.37561 12.0549C1.85728 11.938 1.41443 11.865 1.38927 11.8894C1.33391 11.9429 1.10242 13.3497 1.0823 13.7537L1.0672 14.0701L1.44462 14.0848C1.94283 14.1042 2.04851 14.075 2.04851 13.9241C2.04851 13.7927 1.9227 13.7051 1.72644 13.7051C1.49495 13.7051 1.44462 13.6564 1.44462 13.4519C1.44462 13.155 1.60063 12.3859 1.66605 12.3615C1.7516 12.3323 3.15059 12.6098 3.21098 12.6682C3.24621 12.7023 3.23614 12.97 3.18582 13.4909C3.14053 13.9095 3.1053 14.479 3.1053 14.7516C3.1053 15.0729 3.08517 15.2725 3.03988 15.3212C2.98956 15.3845 2.78323 15.4088 1.99818 15.4575C1.45972 15.4867 1.01184 15.5208 1.00178 15.5305C0.981648 15.55 1.13765 16.874 1.2081 17.2829C1.26849 17.6237 1.26849 17.6237 1.44462 17.6383C1.68618 17.6626 2.20451 17.5507 2.2347 17.4679C2.2498 17.4338 2.24477 17.3462 2.22967 17.2781C2.19444 17.1515 2.18941 17.1515 1.85224 17.1856L1.51004 17.2196L1.47985 17.0298C1.45972 16.9276 1.43456 16.6355 1.41443 16.3775C1.3792 15.9151 1.3792 15.9102 1.49998 15.881C1.59056 15.8615 2.70271 15.7836 3.02981 15.7739C3.05498 15.7739 3.1053 15.9832 3.14053 16.2363C3.17575 16.4895 3.2764 17.0541 3.36195 17.4922C3.54311 18.3928 3.53305 18.4755 3.22104 18.607C3.1204 18.6459 2.80839 18.7433 2.53161 18.826C1.85224 19.0207 1.74657 19.0792 1.74657 19.2495C1.74657 19.4978 2.436 21.1577 2.54168 21.1529C2.56181 21.1529 2.73794 21.0701 2.92917 20.9679C3.21098 20.8218 3.28646 20.7634 3.29653 20.6612C3.32169 20.4519 3.21098 20.4129 2.89897 20.52C2.68762 20.5882 2.61213 20.5979 2.56684 20.5541C2.48632 20.4762 2.14915 19.6244 2.14915 19.5027C2.14915 19.4345 2.20954 19.3761 2.33535 19.3225C2.63226 19.2057 3.53808 18.9136 3.62363 18.9136C3.66892 18.9136 3.79473 19.123 3.9608 19.4832C4.10674 19.7996 4.38352 20.3497 4.57475 20.705C4.77101 21.0604 4.91695 21.3622 4.91191 21.367C4.82133 21.4352 4.20235 21.8197 3.86015 22.0193C3.17575 22.4136 3.19085 22.3698 3.58841 22.9345C3.7746 23.2022 4.07151 23.5965 4.25268 23.8156C4.62004 24.2683 4.58984 24.2634 5.00753 23.9032C5.28431 23.6598 5.32457 23.5527 5.17863 23.4261C5.10818 23.3629 5.07295 23.358 4.9874 23.4067C4.92701 23.4407 4.80623 23.504 4.71062 23.5576L4.54455 23.6501L4.37345 23.4602C4.13693 23.1925 3.75951 22.6765 3.75951 22.6181C3.75951 22.5889 4.07151 22.3649 4.44894 22.1216L5.13837 21.6737L5.23902 21.7954C5.2994 21.8636 5.48057 22.0875 5.64664 22.2968C5.8127 22.5061 6.17 22.9199 6.43672 23.212C6.70846 23.5089 6.92989 23.7718 6.92989 23.801C6.92989 23.835 6.63298 24.1563 6.27568 24.5214C5.91335 24.8865 5.62148 25.198 5.62148 25.2175C5.62148 25.2954 6.53736 26.045 7.12615 26.4491L7.42809 26.6535L7.68474 26.2787C7.82061 26.0694 7.93636 25.8698 7.93636 25.8406C7.93636 25.7578 7.70487 25.6167 7.63945 25.6556C7.60925 25.6702 7.51364 25.7822 7.42306 25.9039C7.33751 26.0207 7.23183 26.1132 7.20163 26.1083C7.07079 26.0791 6.22536 25.3684 6.22536 25.2857C6.22536 25.2418 6.46691 24.94 6.75879 24.6139L7.29222 24.02L7.44822 24.1417C7.99675 24.5749 8.64592 25.0277 9.08877 25.2905C9.36554 25.456 9.59703 25.6215 9.59703 25.6605C9.59703 25.6994 9.41587 26.0742 9.19444 26.4929C8.97302 26.9115 8.79186 27.3009 8.79186 27.3593C8.79186 27.4567 8.88747 27.5103 9.48632 27.7634C10.4274 28.1674 10.7092 28.2696 10.7847 28.2404C10.8199 28.2258 10.9105 28.0262 10.986 27.7975C11.1319 27.3399 11.1218 27.2863 10.8652 27.2863C10.7796 27.2863 10.7293 27.3447 10.6287 27.5541C10.5632 27.7001 10.4777 27.8218 10.4374 27.8218C10.3116 27.8218 9.34541 27.3399 9.31522 27.262C9.29509 27.2231 9.31019 27.116 9.34542 27.0283C9.4058 26.892 9.87381 26.0548 9.99459 25.8795C10.0298 25.826 10.1607 25.8601 10.6891 26.0596C11.3332 26.3079 12.0428 26.5416 12.4655 26.6535C12.7121 26.7168 12.7121 26.6292 12.4655 27.6758C12.3799 28.036 12.3145 28.4108 12.3246 28.5033L12.3397 28.6737L12.7423 28.7564C13.3109 28.8781 14.4734 28.9317 14.5338 28.8392C14.5589 28.8002 14.5791 28.6055 14.5791 28.4011C14.5791 27.9922 14.5338 27.9289 14.3073 28.0165C14.1815 28.0603 14.1261 28.1869 14.1261 28.44C14.1261 28.5228 14.106 28.6055 14.0809 28.6201C14.0205 28.6591 13.0241 28.5082 12.9083 28.4449C12.8379 28.4108 12.8177 28.3427 12.8177 28.1479C12.8228 27.8948 13.0241 26.9212 13.0895 26.8628C13.1096 26.8434 13.5223 26.8677 14.0154 26.9115C14.5036 26.9553 15.1377 27.0089 15.4245 27.0235L15.9378 27.0575L15.9428 27.4762C15.9428 28.0701 16.0183 28.9414 16.0686 28.9901C16.0938 29.0095 16.3857 28.9998 16.7178 28.9657C17.3318 28.9025 17.5129 28.8781 17.996 28.7856L18.2678 28.7369L18.2376 28.4643C18.1873 28.0116 18.1168 27.8218 17.986 27.8218C17.7696 27.8218 17.7343 27.8851 17.7595 28.2258L17.7897 28.5422L17.5532 28.5714C17.4274 28.586 17.1254 28.6104 16.8889 28.6299C16.5115 28.6542 16.4511 28.6493 16.4259 28.5812C16.4058 28.5325 16.3756 28.1625 16.3605 27.7488L16.3253 26.9991L16.4964 26.9748C16.592 26.9602 16.9292 26.9164 17.2462 26.8726C17.5632 26.8336 18.1067 26.7363 18.454 26.6584C18.8566 26.5708 19.0931 26.5416 19.1182 26.5708C19.1333 26.6 19.2692 27.0089 19.4151 27.4908C19.6366 28.2112 19.702 28.3573 19.7775 28.3573C19.8832 28.3573 21.0909 27.9289 21.5589 27.7244C21.8659 27.5881 21.8709 27.5833 21.8256 27.447C21.7401 27.2182 21.4482 26.7752 21.3677 26.7606C21.3274 26.7557 21.252 26.7801 21.1966 26.8142C21.106 26.8823 21.106 26.8872 21.2067 27.15C21.2671 27.2961 21.2972 27.4421 21.2771 27.4713C21.2469 27.5249 20.2203 27.9192 20.1197 27.9192C20.0341 27.9192 19.6416 26.9407 19.5812 26.5562L19.551 26.3809L20.0744 26.1716C20.3562 26.0548 20.9299 25.7919 21.3375 25.5875C21.9666 25.2759 22.0924 25.2272 22.1326 25.2905C23.275 27.0575 23.1391 26.8872 23.3454 26.7801C23.587 26.6535 24.8501 25.7189 24.9155 25.6215C24.9809 25.5193 24.9256 25.4219 24.5985 25.052L24.377 24.7989L24.2311 24.9303C24.1556 25.0033 24.0902 25.0861 24.0902 25.1153C24.0902 25.1445 24.1808 25.2564 24.2965 25.3684L24.4978 25.568L24.2814 25.7481C24.1607 25.8503 23.909 26.0304 23.7228 26.157L23.3806 26.3858L23.28 26.2641C23.124 26.0645 22.4295 25.0617 22.4295 25.0325C22.4295 25.0131 22.6962 24.794 23.0233 24.5457C23.3454 24.2926 23.8285 23.8983 24.0902 23.6647C24.3519 23.4359 24.5783 23.246 24.5934 23.246C24.6085 23.2509 24.7796 23.3921 24.9709 23.5673C25.6603 24.1904 26.0075 24.463 26.0981 24.463C26.2591 24.463 27.487 22.9199 27.4317 22.7884C27.3914 22.6911 26.8228 22.3211 26.707 22.3211C26.6164 22.3211 26.4554 22.4672 26.4554 22.5451C26.4554 22.5743 26.5561 22.6619 26.6819 22.7495C26.8077 22.8323 26.9083 22.9296 26.9083 22.9637C26.9033 23.0562 26.8177 23.1876 26.4604 23.6306C26.1434 24.0249 26.1384 24.0297 26.0327 23.9373C25.8867 23.8156 24.8752 22.988 24.8501 22.9686C24.8249 22.954 24.8752 22.8907 25.4791 22.1216C25.6754 21.8684 25.9673 21.4595 26.1283 21.2113C26.3145 20.9192 26.4453 20.7634 26.5057 20.7634C26.5561 20.7634 26.9788 20.9484 27.4417 21.1772L28.2922 21.591L28.4532 21.2892C28.5388 21.1188 28.7401 20.6709 28.9011 20.2864C29.2383 19.4881 29.2433 19.5173 28.73 19.3518C28.3778 19.2398 28.2771 19.2495 28.1765 19.4053C28.0909 19.5367 28.1463 19.5951 28.4834 19.712C28.6143 19.7607 28.72 19.8191 28.72 19.8385C28.72 19.9067 28.5489 20.3059 28.3677 20.6807C28.2268 20.9679 28.1865 21.0068 28.096 20.9776C27.799 20.89 26.707 20.3497 26.707 20.2961C26.707 20.2572 26.7775 20.0625 26.8681 19.8531C26.9536 19.6438 27.1549 19.0986 27.3109 18.6459C27.5726 17.906 27.6128 17.8184 27.7185 17.8038C27.7839 17.7989 28.2218 17.8671 28.6898 17.9596C29.1578 18.052 29.5553 18.1202 29.5755 18.1105C29.6359 18.0764 29.7214 17.6967 29.8271 17.0055C29.9328 16.3288 29.9529 15.9443 29.8925 15.9443C29.8673 15.9443 29.7063 15.9199 29.5251 15.8907C29.0722 15.8226 28.9716 15.8518 28.9716 16.0708C28.9716 16.2558 28.9816 16.2607 29.344 16.3094L29.5906 16.3434L29.5553 16.616C29.5402 16.7669 29.5 17.0639 29.4648 17.2683C29.3993 17.7064 29.4144 17.7016 28.8055 17.5701C28.4583 17.4971 27.7538 17.3121 27.7236 17.2829C27.7185 17.2781 27.7387 17.1125 27.7689 16.913C27.799 16.7134 27.8393 16.1244 27.8594 15.6035L27.8896 14.6543L28.0909 14.6202C28.2016 14.6056 28.6747 14.5715 29.1376 14.5521C29.6006 14.5326 29.9881 14.5034 29.9982 14.4888C30.0133 14.4596 29.9328 13.7245 29.822 12.8921C29.7415 12.2593 29.7415 12.2593 29.2282 12.3664C28.9967 12.4151 28.8005 12.4832 28.7854 12.5222C28.7703 12.5563 28.7753 12.6439 28.7904 12.712C28.8256 12.8386 28.8357 12.8386 29.0924 12.8142C29.2383 12.7996 29.3842 12.8045 29.4195 12.824C29.505 12.8775 29.5654 13.1161 29.6006 13.6028C29.6359 14.0069 29.6308 14.0409 29.5352 14.0896C29.4446 14.1383 27.9651 14.2551 27.9249 14.2162C27.9148 14.2113 27.8745 13.9533 27.8343 13.6515C27.794 13.3448 27.7034 12.824 27.6279 12.4881C27.5575 12.1522 27.487 11.8017 27.477 11.7044L27.4518 11.5243L27.799 11.4026C27.9852 11.3344 28.3677 11.2127 28.6445 11.13C29.2937 10.9353 29.2937 10.9353 29.2635 10.6967C29.2333 10.4923 28.6545 9.05141 28.5438 8.9005C28.4834 8.81775 28.4583 8.82262 28.1614 8.95892C27.9903 9.04167 27.794 9.1439 27.7286 9.19257C27.6179 9.27533 27.6179 9.28993 27.6883 9.42623C27.7739 9.582 27.8745 9.60147 28.0658 9.49438C28.3123 9.35808 28.3929 9.39702 28.5539 9.72317C28.6394 9.89354 28.7451 10.1467 28.7954 10.2927C28.8961 10.5945 28.9213 10.5702 28.3627 10.7795C27.8544 10.9693 27.3814 11.0959 27.2958 11.0618C27.2606 11.0472 27.175 10.9012 27.1146 10.7357C27.0543 10.575 26.7976 10.0396 26.551 9.55766C26.1786 8.83235 26.1082 8.66685 26.1635 8.6133C26.234 8.54515 27.633 7.68841 27.7286 7.65434C27.7688 7.63973 27.7487 7.56672 27.6682 7.42068C27.5122 7.14808 26.8731 6.29134 26.6164 6.01388L26.4202 5.79969L26.2239 5.92625C26.1132 5.99927 25.9371 6.1307 25.8314 6.22319L25.6301 6.3887L25.7458 6.5396C25.8062 6.62722 25.8817 6.69537 25.9119 6.69537C25.9371 6.69537 26.0578 6.62722 26.1786 6.54447C26.3044 6.45685 26.4353 6.4033 26.4755 6.41791C26.5712 6.45685 27.2103 7.23084 27.2103 7.31359C27.2103 7.34766 27.1599 7.42068 27.0995 7.47909C26.8932 7.66894 25.9371 8.25795 25.8566 8.24335C25.8163 8.23361 25.6301 8.0389 25.4489 7.80037C25.1067 7.36714 24.8752 7.11401 24.3116 6.54934L23.9946 6.23293L24.1305 6.08202C24.2059 5.99927 24.518 5.67313 24.8199 5.35672C25.1269 5.04031 25.3735 4.76771 25.3735 4.74824C25.3735 4.67522 23.6876 3.38524 23.592 3.38524C23.5366 3.38524 23.1642 3.85255 23.0787 4.0278C23.0334 4.13489 23.0334 4.1787 23.0837 4.23711C23.1894 4.35881 23.3203 4.31987 23.5417 4.09108C23.6625 3.96938 23.7732 3.87689 23.7933 3.88176C23.8889 3.91584 24.7947 4.66548 24.7947 4.71416C24.7947 4.76284 24.4425 5.16687 23.9594 5.66826L23.7027 5.93599L23.0787 5.49302C22.7365 5.24963 22.2182 4.90401 21.9263 4.7239C21.6344 4.54379 21.3929 4.38802 21.3828 4.38315C21.3727 4.37341 21.5791 3.98886 21.8407 3.52154C22.1024 3.0591 22.3087 2.65993 22.2937 2.63559C22.2182 2.51877 20.3713 1.75938 20.2304 1.78859C20.1448 1.80319 19.9385 2.24617 19.8832 2.53824C19.858 2.68427 19.8681 2.69888 20.009 2.72808C20.2103 2.77189 20.2857 2.70861 20.3965 2.43115C20.4417 2.31432 20.5072 2.21696 20.5424 2.21696C20.6883 2.21696 21.725 2.67454 21.725 2.73782C21.725 2.75729 21.564 3.0883 21.3727 3.47286C21.0456 4.11055 21.0104 4.16896 20.9047 4.13489C20.8443 4.12029 20.5323 4.00346 20.2153 3.88663C19.6265 3.66271 19.0931 3.48747 18.7307 3.39011C18.3181 3.28302 18.3282 3.31709 18.5295 2.41167C18.6251 1.9687 18.7207 1.55007 18.7358 1.48192C18.7609 1.36022 18.7458 1.35049 18.5194 1.29694C17.9558 1.17524 16.6474 1 16.5517 1.03408C16.4712 1.06815 16.436 1.21419 16.4259 1.57927C16.4159 1.8324 16.431 1.89568 16.5165 1.9541C16.6725 2.06606 16.7631 2.01738 16.8134 1.80319C16.904 1.37482 16.909 1.37482 17.2814 1.4089C17.7243 1.45271 18.0715 1.5306 18.1671 1.59874C18.2325 1.65229 18.2275 1.73505 18.1017 2.33866C17.9256 3.17593 17.9155 3.20513 17.7796 3.17106C17.6287 3.13698 16.7379 3.05423 15.9328 2.99582C15.5604 2.97148 15.2182 2.9374 15.1729 2.9228C15.0823 2.88872 15.032 2.42628 15.032 1.57441V1L14.7955 1.00487C14.6596 1.00974 14.2922 1.03894 13.9752 1.07302ZM16.8637 3.3609C21.2771 3.86229 24.996 6.57855 26.6919 10.541C27.3914 12.1717 27.7085 14.0701 27.5676 15.7885C27.4216 17.5117 27.0794 18.7579 26.3497 20.1793C25.5999 21.6396 24.533 22.9442 23.2347 23.9957C20.3914 26.2982 16.4964 27.2182 12.9033 26.4345C11.0111 26.0207 9.25483 25.2029 7.91119 24.1125C7.3526 23.6598 6.31594 22.6327 5.858 22.0777C4.91191 20.9387 4.12183 19.3323 3.73434 17.7697C3.45756 16.6452 3.43744 16.4408 3.4324 14.995C3.4324 13.5055 3.47266 13.1988 3.80983 11.9283C4.17719 10.5556 4.98237 8.97352 5.91335 7.81498C6.64807 6.89982 7.80552 5.86297 8.81702 5.22042C9.52155 4.77258 10.9256 4.11055 11.7358 3.84769C12.4051 3.6335 13.5374 3.40958 14.4281 3.32196C14.9112 3.27328 16.285 3.29762 16.8637 3.3609Z" fill="#444A4B"/>
<path d="M10.0327 9.02263C10.014 9.04154 10 10.394 10 12.0302V15H11.5H13L12.9813 14.8439L12.9673 14.6926L11.6682 14.669L10.3692 14.6453L10.3598 11.8316L10.3505 9.0179L10.2103 9.00371C10.1308 8.99425 10.0514 9.00371 10.0327 9.02263ZM10.2523 9.06992C10.3458 9.10775 10.3505 9.16922 10.257 9.16922C10.2196 9.16922 10.2009 9.15031 10.215 9.13139C10.2243 9.11248 10.2056 9.0841 10.1776 9.07464C10.1449 9.06046 10.1308 9.04627 10.1495 9.04627C10.1636 9.04154 10.2103 9.05573 10.2523 9.06992ZM10.0794 13.7799C10.0654 13.8178 10.0514 13.8036 10.0514 13.7516C10.0467 13.6995 10.0607 13.6712 10.0748 13.6901C10.0888 13.7043 10.0935 13.7468 10.0794 13.7799Z" fill="#444A4B"/>
<path d="M15.361 9.46695C15.0414 9.84425 14.9711 9.94138 15.0095 9.97127C15.099 10.0385 15.1533 10.0049 15.4728 9.68362C15.6485 9.50805 15.8402 9.32126 15.8978 9.2727C15.9521 9.2204 16 9.16437 16 9.15316C16 9.13075 15.7987 9 15.7667 9C15.7636 9 15.5814 9.2092 15.361 9.46695Z" fill="#A1E3EC"/>
<path d="M18.779 10.0513C18.6702 10.089 18.5655 10.1214 18.5494 10.1268C18.493 10.1268 18.1668 10.5904 18.1024 10.7522C18.0138 10.9894 17.9775 11.4099 18.0299 11.6687C18.0903 11.976 18.3158 12.2995 18.5816 12.4666C18.9199 12.6822 19.2743 12.8332 19.3267 12.7901C19.3549 12.7685 19.3629 12.7739 19.3508 12.8062C19.3186 12.8763 19.4314 12.9464 19.4918 12.8925C19.52 12.8763 19.524 12.8871 19.5079 12.9195C19.4918 12.9572 19.4958 12.9841 19.52 12.9841C19.5804 12.9841 19.7173 13.313 19.7455 13.5287C19.81 14.0031 19.5522 14.5422 19.2059 14.6554C18.9602 14.7309 18.7508 14.6662 18.5373 14.4398C18.4528 14.3481 18.4004 14.278 18.4205 14.278C18.4366 14.278 18.4205 14.2457 18.3803 14.208C18.3319 14.1594 18.3078 14.0678 18.3078 13.9384C18.3078 13.7389 18.3037 13.7389 18.1467 13.7389C17.9977 13.7389 17.9856 13.7497 18.0098 13.8575C18.0218 13.9276 18.0339 14.0247 18.0339 14.0732C18.0339 14.1217 18.0581 14.1972 18.0863 14.2349C18.1145 14.2727 18.1467 14.3266 18.1507 14.3589C18.1708 14.4775 18.4044 14.7687 18.5695 14.8765C18.8192 15.049 19.2059 15.0382 19.4435 14.8603C19.5442 14.7848 19.6207 14.6932 19.6126 14.6554C19.6086 14.6231 19.6166 14.6069 19.6368 14.6231C19.6569 14.6393 19.7133 14.5961 19.7616 14.526C19.8301 14.429 19.8422 14.3697 19.814 14.2942C19.7616 14.1648 19.7777 13.9384 19.8422 13.9222C19.8663 13.9168 19.8704 13.9222 19.8462 13.9384C19.822 13.9546 19.822 13.9977 19.8502 14.0732C19.8824 14.1541 19.8824 14.1756 19.8502 14.1487C19.7979 14.1001 19.7938 14.1702 19.8462 14.278C19.8744 14.3374 19.8905 14.3212 19.9308 14.1972C20.0596 13.7551 20.0033 13.1459 19.8059 12.8763C19.6489 12.6607 19.4958 12.5367 19.4394 12.5852C19.4072 12.6121 19.4032 12.6014 19.4233 12.5528C19.4475 12.4989 19.4354 12.4881 19.371 12.5097C19.3227 12.5313 19.2904 12.5205 19.3065 12.4935C19.3186 12.4666 19.2985 12.445 19.2663 12.445C19.2018 12.445 19.0166 12.348 18.7266 12.1593C18.634 12.1 18.5011 11.9706 18.4366 11.8682C18.3279 11.7064 18.3158 11.6471 18.3158 11.3182C18.3158 10.9948 18.3319 10.9247 18.4366 10.7306C18.5937 10.4395 18.7427 10.3424 19.0287 10.3424C19.2139 10.3424 19.2945 10.3694 19.4153 10.4772C19.5683 10.6174 19.7254 10.957 19.7254 11.1457C19.7254 11.2697 19.9066 11.3614 19.971 11.2751C20.0556 11.1619 19.8905 10.6174 19.6932 10.3478C19.6448 10.2831 19.6328 10.2831 19.5965 10.3478C19.5643 10.4071 19.5603 10.4071 19.5764 10.3316C19.6046 10.2238 19.5482 10.1591 19.3629 10.0836C19.1052 9.98121 18.9844 9.97582 18.779 10.0513ZM19.0689 10.213C19.0568 10.2292 19.0206 10.2346 18.9924 10.2184C18.9602 10.2023 18.9723 10.1861 19.0166 10.1861C19.0609 10.1807 19.085 10.1969 19.0689 10.213ZM18.2796 10.6821C18.2393 10.7306 18.2353 10.7252 18.2594 10.6497C18.2715 10.5958 18.2957 10.5689 18.3078 10.585C18.3199 10.6012 18.3078 10.6443 18.2796 10.6821ZM18.2957 10.8762C18.2836 10.9085 18.2514 10.9355 18.2313 10.9355C18.2111 10.9355 18.2151 10.9031 18.2433 10.86C18.2997 10.7737 18.34 10.7899 18.2957 10.8762ZM18.1467 11.0163C18.1346 11.0325 18.1104 11.0056 18.0984 10.9516C18.0742 10.8762 18.0782 10.8708 18.1185 10.9193C18.1467 10.957 18.1588 11.0002 18.1467 11.0163ZM18.2192 11.9059C18.2192 11.9706 18.2031 11.9922 18.1829 11.9652C18.1628 11.9382 18.1588 11.8897 18.1708 11.8574C18.2111 11.7765 18.2192 11.7819 18.2192 11.9059ZM18.5454 12.3102C18.5494 12.3695 18.4769 12.3534 18.4246 12.2887C18.4085 12.2671 18.4246 12.2509 18.4648 12.2563C18.5051 12.2563 18.5414 12.2833 18.5454 12.3102ZM18.7588 12.445C18.791 12.472 18.8031 12.4989 18.779 12.4989C18.7588 12.4989 18.7105 12.472 18.6783 12.445C18.6461 12.4181 18.638 12.3911 18.6581 12.3911C18.6823 12.3911 18.7266 12.4181 18.7588 12.445ZM18.1185 14.1325C18.0782 14.181 18.0742 14.1756 18.0984 14.1001C18.1104 14.0462 18.1346 14.0193 18.1467 14.0354C18.1588 14.0516 18.1467 14.0947 18.1185 14.1325Z" fill="#444A4B"/>
<path d="M12.9605 10.0981C12.9699 10.1526 13.0361 10.3544 13.1117 10.5506C13.1873 10.7414 13.2581 10.9213 13.2629 10.9541C13.2723 10.9813 13.329 11.1394 13.3904 11.303C13.4518 11.4611 13.5038 11.6137 13.5038 11.6355C13.5038 11.6573 13.5369 11.7064 13.5747 11.7446C13.6125 11.7827 13.6314 11.8318 13.6219 11.859C13.5936 11.9081 13.8723 12.6332 13.9337 12.6604C13.9526 12.6713 13.9574 12.715 13.9432 12.764C13.9243 12.8185 13.9337 12.8404 13.9621 12.8185C13.9952 12.7913 14.0046 12.8185 13.9904 12.8785C13.981 12.9385 13.9952 13.0148 14.033 13.0584C14.066 13.102 14.0991 13.1729 14.1086 13.2165C14.1133 13.2601 14.1416 13.3474 14.1653 13.4073C14.1889 13.4673 14.2361 13.6036 14.2739 13.7072C14.3117 13.8108 14.444 14.1651 14.5621 14.4922C14.7369 14.9611 14.7747 15.1137 14.7416 15.201C14.7133 15.2664 14.6141 15.5226 14.5149 15.7788C14.4157 16.0351 14.3306 16.2531 14.3212 16.264C14.3164 16.2749 14.203 16.1714 14.0708 16.0351C13.1353 15.0647 11.6045 15.1246 10.7163 16.1605C10.4423 16.4767 10.1494 17.06 10.0549 17.4634C9.9651 17.8614 9.98872 18.6574 10.1021 19.0553C10.5793 20.7181 12.2282 21.4814 13.6077 20.6799C13.7873 20.5764 14.033 20.3583 14.2314 20.1293L14.5574 19.7532L14.4062 19.5732L14.255 19.3933L13.9952 19.7041C13.5936 20.1947 12.9699 20.5109 12.4172 20.5218C12.1951 20.5218 11.7226 20.3801 11.5573 20.2602L11.425 20.162L12.3368 19.1589C14.2786 17.0164 14.5196 16.7274 14.5905 16.4767C14.6283 16.3458 14.6566 16.2095 14.6519 16.1768C14.6519 16.1387 14.6661 16.1168 14.685 16.1332C14.7369 16.1714 14.7889 16.0024 14.7464 15.9315C14.7322 15.8933 14.7416 15.8879 14.77 15.9097C14.8031 15.9315 14.8314 15.9151 14.8314 15.8661C14.8409 15.7298 14.8456 15.7134 15.011 15.3482C15.1007 15.1519 15.1527 14.9556 15.1385 14.8957C15.1291 14.8357 15.1291 14.803 15.1432 14.8193C15.1858 14.8629 15.2944 14.6776 15.2992 14.5631C15.2992 14.5086 15.3322 14.4268 15.37 14.3777C15.4173 14.3287 15.4314 14.2524 15.4125 14.1869C15.3984 14.1215 15.4031 14.0888 15.4267 14.1052C15.4503 14.1215 15.6677 13.6036 15.9086 12.9548C16.1496 12.3061 16.4 11.6355 16.4661 11.472C16.6409 11.0358 16.7118 10.7796 16.6787 10.7305C16.6598 10.7087 16.674 10.7087 16.7071 10.7305C16.7354 10.7523 16.7638 10.7414 16.7638 10.7087C16.7638 10.676 16.8157 10.5125 16.8819 10.3489C16.948 10.1854 17 10.0382 17 10.0273C17 10.0109 16.9244 10 16.8346 10C16.6693 10 16.6646 10.0109 16.4803 10.4579C16.3764 10.7142 16.2913 10.9322 16.2913 10.9541C16.2913 10.9704 16.2252 11.1449 16.1496 11.3411C16.0693 11.5374 16.0173 11.7227 16.0362 11.7555C16.0551 11.7882 16.0504 11.7991 16.022 11.7827C15.9795 11.75 15.8283 12.1589 15.8567 12.2461C15.8614 12.2734 15.8472 12.2897 15.8283 12.2897C15.7716 12.2897 15.6724 12.5623 15.7007 12.6223C15.7196 12.6495 15.7102 12.6713 15.6866 12.6713C15.6251 12.6713 15.2944 13.5981 15.3322 13.669C15.3464 13.6963 15.3417 13.7072 15.3133 13.6908C15.2897 13.6745 15.2047 13.8326 15.1291 14.0452C14.9873 14.4486 14.8739 14.5795 14.8739 14.3505C14.8739 14.2469 14.8645 14.2414 14.822 14.3069C14.7842 14.3723 14.7794 14.3668 14.7983 14.2742C14.8172 14.2142 14.7794 14.0506 14.718 13.8925C14.6566 13.7453 14.5668 13.5109 14.5196 13.3692C14.4723 13.2165 14.4157 13.1238 14.3873 13.1457C14.359 13.1675 14.3495 13.1457 14.3684 13.0857C14.3873 13.0312 14.3542 12.884 14.2881 12.7368C14.2267 12.595 14.1605 12.4206 14.1416 12.3442C14.1227 12.2679 14.0471 12.0608 13.9715 11.8808C13.9007 11.7009 13.7967 11.412 13.74 11.2375C13.6833 11.0685 13.6172 10.9268 13.5936 10.9268C13.5652 10.9268 13.5558 10.905 13.57 10.8777C13.6077 10.8069 13.3857 10.2671 13.3384 10.3162C13.3148 10.338 13.3148 10.3217 13.3337 10.2889C13.3999 10.1581 13.2723 10 13.1022 10C12.9747 10 12.9463 10.0164 12.9605 10.0981ZM13.655 11.2648C13.6219 11.303 13.5983 11.3084 13.5983 11.2757C13.5983 11.243 13.6125 11.1994 13.6314 11.183C13.6455 11.1612 13.6739 11.1558 13.6881 11.1721C13.6975 11.1885 13.6833 11.2321 13.655 11.2648ZM13.929 11.9626C13.9574 12.0226 13.9668 12.0717 13.9574 12.0717C13.9432 12.0717 13.9101 12.0226 13.8818 11.9626C13.8534 11.9027 13.844 11.8536 13.8534 11.8536C13.8676 11.8536 13.9007 11.9027 13.929 11.9626ZM15.6771 12.9985C15.7055 13.0584 15.7149 13.1075 15.7055 13.1075C15.6913 13.1075 15.6582 13.0584 15.6299 12.9985C15.6015 12.9385 15.5921 12.8894 15.6015 12.8894C15.6157 12.8894 15.6488 12.9385 15.6771 12.9985ZM15.3322 14.0997C15.318 14.1433 15.3039 14.127 15.3039 14.067C15.2991 14.007 15.3133 13.9743 15.3275 13.9961C15.3417 14.0125 15.3464 14.0615 15.3322 14.0997ZM14.7322 15.6753C14.7322 15.708 14.7133 15.7134 14.685 15.6971C14.6613 15.6807 14.6377 15.6371 14.6377 15.6098C14.6377 15.5771 14.6613 15.5717 14.685 15.588C14.7133 15.6044 14.7322 15.648 14.7322 15.6753ZM13.1731 16.0078C13.5085 16.1823 13.929 16.5693 13.929 16.7002C13.929 16.7547 13.7306 17.0109 13.4944 17.2781C13.2534 17.5397 12.625 18.2485 12.1006 18.8536L11.1415 19.944L10.9525 19.7313C10.7069 19.4533 10.4565 18.8754 10.4139 18.4993C10.3147 17.5561 10.7541 16.553 11.4628 16.1168C11.8408 15.8824 12.0345 15.8334 12.5116 15.8497C12.8235 15.8606 12.9699 15.8988 13.1731 16.0078Z" fill="#A1E3EC"/>
<path d="M5 14.2473V14.4947H6.10119H7.20238L7.21429 17.7449L7.23214 21H7.5H7.76786L7.78571 17.7449L7.79762 14.4947H8.89881H10V14.2473V14H7.5H5V14.2473Z" fill="#444A4B"/>
<path d="M20.0196 14.06C20.0022 14.0949 19.9964 15.6638 20.0022 17.5475L20.0196 20.97H20.2518H20.4841L20.5131 19.4711C20.5422 18.0721 20.5538 17.9522 20.6757 17.6924C20.9544 17.0928 21.355 16.7131 22.0227 16.4333C22.3711 16.2834 22.4408 16.2734 23.0098 16.2734C23.5904 16.2734 23.6427 16.2834 24.0259 16.4433C24.7923 16.768 25.3323 17.3976 25.4484 18.1071C25.4774 18.2819 25.5065 19.0014 25.5065 19.7109V21L25.7561 20.985L26 20.97V19.4461C26 18.2869 25.9826 17.8622 25.9187 17.6724C25.5355 16.4982 24.322 15.7288 23.0098 15.8137C22.5279 15.8487 22.046 15.9736 21.6569 16.1734C21.3376 16.3333 20.8615 16.738 20.7105 16.9729C20.6525 17.0678 20.5828 17.1478 20.5596 17.1478C20.5305 17.1478 20.5131 16.4383 20.5131 15.5739V14H20.2809C20.1473 14 20.0312 14.025 20.0196 14.06Z" fill="#444A4B"/>
<path d="M17.2059 15.0429C16.4076 15.1992 15.6565 15.8129 15.2836 16.6176C14.9055 17.4397 14.9055 18.5512 15.2836 19.3733C15.8456 20.5948 17.1271 21.2375 18.3561 20.919C18.9496 20.7627 19.6008 20.288 19.9002 19.7901C19.9842 19.657 19.9842 19.6454 19.8267 19.4659L19.6639 19.2807L19.3172 19.6686C18.9181 20.1143 18.5452 20.3401 18.0515 20.4327C17.3634 20.5659 16.5861 20.2706 16.1082 19.6975C15.3782 18.8175 15.2731 17.6365 15.8351 16.6755C16.0872 16.2529 16.355 15.9982 16.7857 15.7724C17.1061 15.6045 17.1639 15.5929 17.7311 15.5929C18.2931 15.5929 18.3561 15.6045 18.6502 15.7608C18.8498 15.865 19.0966 16.0792 19.3172 16.3224L19.6639 16.7102L19.8319 16.5192L20 16.3281L19.8529 16.1139C19.6429 15.8071 19.0861 15.3555 18.7342 15.2108C18.2405 15.0082 17.7048 14.9503 17.2059 15.0429Z" fill="#444A4B"/>
</svg>
