<svg width="26" height="23" viewBox="0 0 26 23" fill="none" xmlns="http://www.w3.org/2000/svg">
<path d="M15.1227 11.4367L25.6527 2.12169C25.8893 1.87725 26.013 1.56282 25.9989 1.24124C25.9849 0.919651 25.8342 0.614596 25.5769 0.387031C25.3197 0.159466 24.9748 0.0261513 24.6113 0.0137298C24.2478 0.00130832 23.8923 0.110694 23.616 0.320028L13.086 9.63503L2.55601 0.30725C2.27968 0.0979164 1.92424 -0.0114685 1.56071 0.000952948C1.19718 0.0133744 0.852331 0.146687 0.595084 0.374253C0.337836 0.601818 0.187133 0.906873 0.173091 1.22846C0.15905 1.55005 0.282703 1.86448 0.519342 2.10892L11.0493 11.4367L0.504897 20.7517C0.35369 20.8662 0.230883 21.0072 0.144182 21.1657C0.0574821 21.3243 0.00876008 21.4969 0.00107637 21.6729C-0.00660734 21.8489 0.0269123 22.0244 0.0995312 22.1883C0.17215 22.3523 0.282301 22.5012 0.423069 22.6257C0.563837 22.7503 0.732183 22.8477 0.917541 22.912C1.1029 22.9762 1.30127 23.0058 1.5002 22.999C1.69912 22.9923 1.89432 22.9492 2.07352 22.8725C2.25272 22.7958 2.41207 22.6871 2.54156 22.5534L13.086 13.2384L23.616 22.5534C23.8923 22.7627 24.2478 22.8721 24.6113 22.8597C24.9748 22.8472 25.3197 22.7139 25.5769 22.4864C25.8342 22.2588 25.9849 21.9537 25.9989 21.6322C26.013 21.3106 25.8893 20.9961 25.6527 20.7517L15.1227 11.4367Z" fill="#EBEBEB"/>
</svg>
