<svg width="25" height="26" viewBox="0 0 39 40" fill="none" xmlns="http://www.w3.org/2000/svg">
<path d="M16.1336 17.8117C14.3967 17.8117 12.6988 17.2894 11.2546 16.3108C9.81046 15.3322 8.68487 13.9413 8.02019 12.314C7.35551 10.6866 7.1816 8.89598 7.52045 7.16841C7.8593 5.44084 8.69569 3.85397 9.92386 2.60847C11.152 1.36296 12.7168 0.514762 14.4203 0.171127C16.1238 -0.172507 17.8896 0.00385876 19.4942 0.677922C21.0989 1.35198 22.4705 2.49347 23.4354 3.95803C24.4004 5.42259 24.9154 7.14444 24.9154 8.90586C24.9154 11.2678 23.9902 13.5331 22.3433 15.2032C20.6964 16.8734 18.4627 17.8117 16.1336 17.8117ZM16.1336 2.64631C14.8929 2.64631 13.6802 3.0194 12.6486 3.71839C11.6171 4.41738 10.8131 5.41088 10.3383 6.57326C9.86353 7.73564 9.73931 9.01469 9.98134 10.2487C10.2234 11.4826 10.8208 12.6161 11.6981 13.5058C12.5753 14.3954 13.693 15.0013 14.9098 15.2467C16.1266 15.4922 17.3879 15.3662 18.534 14.8847C19.6802 14.4033 20.6599 13.5879 21.3492 12.5418C22.0384 11.4957 22.4063 10.2658 22.4063 9.00764C22.4063 8.17226 22.2441 7.34505 21.9288 6.57326C21.6136 5.80147 21.1516 5.10021 20.5691 4.5095C19.9866 3.9188 19.2951 3.45023 18.534 3.13054C17.773 2.81085 16.9573 2.64631 16.1336 2.64631V2.64631ZM23.1214 19.3511C16.3323 17.8019 9.22981 18.5481 2.89806 21.4758C2.02726 21.8977 1.29256 22.5617 0.779494 23.3906C0.266429 24.2195 -0.00388034 25.1791 4.20893e-05 26.1578V33.7277C4.20859e-05 33.8948 0.0324922 34.0603 0.0955393 34.2146C0.158586 34.369 0.250996 34.5092 0.367492 34.6274C0.483987 34.7455 0.622288 34.8392 0.774497 34.9032C0.926706 34.9671 1.08984 35 1.25459 35C1.41934 35 1.58248 34.9671 1.73469 34.9032C1.8869 34.8392 2.0252 34.7455 2.14169 34.6274C2.25819 34.5092 2.3506 34.369 2.41365 34.2146C2.47669 34.0603 2.50914 33.8948 2.50914 33.7277V26.1578C2.49822 25.6625 2.63011 25.1747 2.88862 24.7544C3.14713 24.334 3.52103 23.9993 3.96442 23.7913C7.7786 22.0053 11.9325 21.089 16.1336 21.1069C18.4875 21.1038 20.8334 21.3857 23.1214 21.9466V19.3511ZM23.2971 31.4504H31V33.2316H23.2971V31.4504Z" fill="#EBEBEB"/>
<path d="M37.6791 24.1624H30.8503V26.723H36.3583V37.4394H17.6417V26.723H25.9631V27.2608C25.9631 27.6003 26.1023 27.926 26.35 28.1661C26.5977 28.4062 26.9337 28.5411 27.284 28.5411C27.6343 28.5411 27.9703 28.4062 28.218 28.1661C28.4657 27.926 28.6048 27.6003 28.6048 27.2608V22.2803C28.6048 21.9408 28.4657 21.6151 28.218 21.375C27.9703 21.1349 27.6343 21 27.284 21C26.9337 21 26.5977 21.1349 26.35 21.375C26.1023 21.6151 25.9631 21.9408 25.9631 22.2803V24.1624H16.3209C15.9705 24.1624 15.6346 24.2973 15.3869 24.5374C15.1392 24.7775 15 25.1032 15 25.4427V38.7197C15 39.0592 15.1392 39.3849 15.3869 39.625C15.6346 39.8651 15.9705 40 16.3209 40H37.6791C38.0295 40 38.3654 39.8651 38.6131 39.625C38.8608 39.3849 39 39.0592 39 38.7197V25.4427C39 25.1032 38.8608 24.7775 38.6131 24.5374C38.3654 24.2973 38.0295 24.1624 37.6791 24.1624Z" fill="#EBEBEB"/>
</svg>
