<svg width="26" height="27" viewBox="0 0 21 21" fill="none" xmlns="http://www.w3.org/2000/svg">
<path d="M20.8482 9.9225L10.9677 0.188701C10.8443 0.0678392 10.6773 0 10.5033 0C10.3293 0 10.1623 0.0678392 10.0389 0.188701L0.158389 9.9225C0.0504767 10.0466 -0.00591209 10.2063 0.000491247 10.3696C0.00689458 10.533 0.0756185 10.6879 0.19293 10.8034C0.310241 10.919 0.467499 10.9867 0.633278 10.993C0.799057 10.9993 0.961148 10.9438 1.08716 10.8375L10.5 1.56441L19.9128 10.844C20.0389 10.9503 20.2009 11.0058 20.3667 10.9995C20.5325 10.9932 20.6898 10.9255 20.8071 10.8099C20.9244 10.6944 20.9931 10.5394 20.9995 10.3761C21.0059 10.2128 20.9495 10.0531 20.8416 9.92899L20.8482 9.9225Z" fill="white"/>
<path d="M16.75 19.6453H13.625V12.8719H7.375V19.6453H4.25V10.1626L3 11.5172V19.6453C3 20.0046 3.1317 20.3492 3.36612 20.6032C3.60054 20.8573 3.91848 21 4.25 21H8.625V14.2266H12.375V21H16.75C17.0815 21 17.3995 20.8573 17.6339 20.6032C17.8683 20.3492 18 20.0046 18 19.6453V11.3547L16.75 10V19.6453Z" fill="white"/>
</svg>
