<svg width="26" height="16" viewBox="0 0 26 23" fill="none" xmlns="http://www.w3.org/2000/svg">
<path d="M25.5729 20.8083L20.6633 16.478C22.2474 14.6928 23.1069 12.4884 23.1037 10.2189C23.1037 8.19782 22.4262 6.22209 21.1568 4.5416C19.8875 2.86111 18.0834 1.55132 15.9725 0.777874C13.8617 0.00442767 11.539 -0.197941 9.29819 0.196358C7.05735 0.590658 4.99901 1.56392 3.38346 2.99306C1.76791 4.4222 0.6677 6.24304 0.22197 8.22532C-0.22376 10.2076 0.00500519 12.2623 0.879336 14.1295C1.75367 15.9968 3.23429 17.5928 5.13398 18.7157C7.03367 19.8385 9.2671 20.4379 11.5518 20.4379C14.1173 20.4407 16.6093 19.6804 18.6273 18.2791L23.5224 22.6222C23.6567 22.7419 23.8164 22.8369 23.9923 22.9018C24.1683 22.9666 24.357 23 24.5476 23C24.7383 23 24.927 22.9666 25.103 22.9018C25.2789 22.8369 25.4386 22.7419 25.5729 22.6222C25.7082 22.5034 25.8156 22.3621 25.8889 22.2065C25.9623 22.0508 26 21.8839 26 21.7152C26 21.5466 25.9623 21.3796 25.8889 21.224C25.8156 21.0683 25.7082 20.927 25.5729 20.8083V20.8083ZM2.88796 10.2189C2.88796 8.7031 3.39609 7.2213 4.34809 5.96093C5.30009 4.70056 6.6532 3.71822 8.23632 3.13814C9.81943 2.55805 11.5614 2.40628 13.2421 2.702C14.9227 2.99773 16.4665 3.72767 17.6781 4.79953C18.8898 5.87139 19.7149 7.23701 20.0492 8.72372C20.3835 10.2104 20.212 11.7514 19.5562 13.1519C18.9005 14.5523 17.79 15.7493 16.3652 16.5915C14.9405 17.4336 13.2654 17.8831 11.5518 17.8831C9.25404 17.8831 7.05035 17.0757 5.42555 15.6383C3.80076 14.201 2.88796 12.2516 2.88796 10.2189Z" fill="#EBEBEB"/>
</svg>
