<svg width="29" height="34" viewBox="0 0 37 40" fill="none" xmlns="http://www.w3.org/2000/svg">
<path d="M25.2551 1.38725L17.6457 18.8812C17.4794 19.2625 17.4007 19.6864 17.4172 20.1125C17.4338 20.5386 17.5449 20.9527 17.7402 21.3155C17.9354 21.6783 18.2083 21.9777 18.5327 22.1852C18.8571 22.3927 19.2224 22.5014 19.5938 22.501H34.8213C35.1926 22.5014 35.5579 22.3927 35.8824 22.1852C36.2068 21.9777 36.4796 21.6783 36.6749 21.3155C36.8701 20.9527 36.9813 20.5386 36.9978 20.1125C37.0144 19.6864 36.9357 19.2625 36.7694 18.8812L29.1512 1.38475C28.9707 0.96876 28.6928 0.618806 28.3487 0.374194C28.0046 0.129582 27.6079 0 27.2032 0C26.7985 0 26.4018 0.129582 26.0577 0.374194C25.7136 0.618806 25.4356 0.96876 25.2551 1.38475V1.38725ZM28.2915 6.23947V13.744C28.2915 14.0755 28.1768 14.3935 27.9727 14.6279C27.7686 14.8623 27.4918 14.994 27.2032 14.994C26.9145 14.994 26.6377 14.8623 26.4336 14.6279C26.2295 14.3935 26.1149 14.0755 26.1149 13.744V6.23947C26.1149 5.90797 26.2295 5.59005 26.4336 5.35564C26.6377 5.12123 26.9145 4.98954 27.2032 4.98954C27.4918 4.98954 27.7686 5.12123 27.9727 5.35564C28.1768 5.59005 28.2915 5.90797 28.2915 6.23947ZM27.2032 20.0012C26.9145 20.0012 26.6377 19.8695 26.4336 19.6351C26.2295 19.4007 26.1149 19.0827 26.1149 18.7512C26.1149 18.4197 26.2295 18.1018 26.4336 17.8674C26.6377 17.633 26.9145 17.5013 27.2032 17.5013C27.4918 17.5013 27.7686 17.633 27.9727 17.8674C28.1768 18.1018 28.2915 18.4197 28.2915 18.7512C28.2915 19.0827 28.1768 19.4007 27.9727 19.6351C27.7686 19.8695 27.4918 20.0012 27.2032 20.0012ZM5.44151 7.5019H20.1706L19.0823 10.0018H5.44151C4.5756 10.0018 3.74516 10.3968 3.13287 11.1C2.52058 11.8033 2.1766 12.757 2.1766 13.7515V14.5065L17.4128 24.8009L17.7828 24.5509C18.3313 24.8384 18.9452 25.0009 19.6047 25.0009H21.4091L17.9657 27.3282C17.8269 27.4218 17.6717 27.4789 17.5114 27.4953C17.351 27.5118 17.1895 27.4871 17.0384 27.4232L16.86 27.3282L2.1766 17.4088V33.7504C2.1766 34.7449 2.52058 35.6986 3.13287 36.4019C3.74516 37.1051 4.5756 37.5001 5.44151 37.5001H29.3841C30.25 37.5001 31.0805 37.1051 31.6928 36.4019C32.3051 35.6986 32.649 34.7449 32.649 33.7504V25.0009H34.8256V33.7504C34.8256 35.4079 34.2523 36.9975 33.2319 38.1695C32.2114 39.3416 30.8273 40 29.3841 40H5.44151C3.99833 40 2.61426 39.3416 1.59378 38.1695C0.5733 36.9975 0 35.4079 0 33.7504V13.7515C0 12.094 0.5733 10.5044 1.59378 9.33237C2.61426 8.16034 3.99833 7.5019 5.44151 7.5019V7.5019Z" fill="#EBEBEB"/>
</svg>
