<svg width="27" height="29" viewBox="0 0 42 44" fill="none" xmlns="http://www.w3.org/2000/svg">
<path d="M10.3334 34.9167V32.7222C10.3334 29.8122 11.4308 27.0214 13.3843 24.9637C15.3378 22.906 17.9874 21.75 20.75 21.75C23.5127 21.75 26.1622 22.906 28.1157 24.9637C30.0692 27.0214 31.1667 29.8122 31.1667 32.7222V34.9167" stroke="#EBEBEB" stroke-width="3.125" stroke-linecap="round"/>
<path d="M20.75 21.75C22.4076 21.75 23.9973 21.0564 25.1694 19.8218C26.3415 18.5872 27 16.9127 27 15.1667C27 13.4207 26.3415 11.7462 25.1694 10.5116C23.9973 9.27697 22.4076 8.58337 20.75 8.58337C19.0924 8.58337 17.5027 9.27697 16.3306 10.5116C15.1585 11.7462 14.5 13.4207 14.5 15.1667C14.5 16.9127 15.1585 18.5872 16.3306 19.8218C17.5027 21.0564 19.0924 21.75 20.75 21.75V21.75Z" stroke="#EBEBEB" stroke-width="3.125" stroke-linecap="round" stroke-linejoin="round"/>
<path d="M39.5 3.31667V40.1833C39.5 40.5325 39.3683 40.8674 39.1339 41.1144C38.8995 41.3613 38.5815 41.5 38.25 41.5H3.25C2.91848 41.5 2.60054 41.3613 2.36612 41.1144C2.1317 40.8674 2 40.5325 2 40.1833V3.31667C2 2.96746 2.1317 2.63257 2.36612 2.38564C2.60054 2.13872 2.91848 2 3.25 2H38.25C38.5815 2 38.8995 2.13872 39.1339 2.38564C39.3683 2.63257 39.5 2.96746 39.5 3.31667V3.31667Z" stroke="#EBEBEB" stroke-width="3.125" stroke-linecap="round" stroke-linejoin="round"/>
</svg>
