<svg width="47" height="44" viewBox="0 0 47 44" fill="none" xmlns="http://www.w3.org/2000/svg">
<path d="M31.3333 38.5V34.8333C31.3333 32.8884 30.508 31.0232 29.039 29.6479C27.57 28.2726 25.5775 27.5 23.5 27.5H9.79165C7.71412 27.5 5.72168 28.2726 4.25264 29.6479C2.78361 31.0232 1.95831 32.8884 1.95831 34.8333V38.5" stroke="black" stroke-width="2" stroke-linecap="round" stroke-linejoin="round"/>
<path d="M16.6458 20.1667C20.9721 20.1667 24.4792 16.8834 24.4792 12.8333C24.4792 8.78325 20.9721 5.5 16.6458 5.5C12.3196 5.5 8.8125 8.78325 8.8125 12.8333C8.8125 16.8834 12.3196 20.1667 16.6458 20.1667Z" stroke="black" stroke-width="2" stroke-linecap="round" stroke-linejoin="round"/>
<path d="M39.1667 14.6665V25.6665" stroke="black" stroke-width="2" stroke-linecap="round" stroke-linejoin="round"/>
<path d="M45.0417 20.1665H33.2917" stroke="black" stroke-width="2" stroke-linecap="round" stroke-linejoin="round"/>
</svg>
