<svg width="26" height="30" viewBox="0 0 39 40" fill="none" xmlns="http://www.w3.org/2000/svg">
<path d="M28.1102 26.3455C29.3669 25.7129 30.8054 25.3528 32.3373 25.3528H32.3425C32.4983 25.3528 32.571 25.1776 32.4567 25.0803C30.8636 23.7405 29.0437 22.6584 27.0715 21.8783C27.0508 21.8686 27.03 21.8637 27.0092 21.854C30.2341 19.6594 32.3321 16.0925 32.3321 12.0681C32.3321 5.40146 26.5782 0 19.4793 0C12.3804 0 6.63167 5.40146 6.63167 12.0681C6.63167 16.0925 8.72966 19.6594 11.9597 21.854C11.939 21.8637 11.9182 21.8686 11.8974 21.8783C9.57613 22.7981 7.49371 24.1168 5.70211 25.8005C3.92085 27.4666 2.50274 29.4417 1.52689 31.6156C0.56676 33.7443 0.0485888 36.0251 0.000129858 38.3358C-0.0012562 38.3877 0.00846535 38.4394 0.028722 38.4877C0.0489785 38.5361 0.0793602 38.5802 0.118077 38.6174C0.156793 38.6545 0.203061 38.6841 0.254154 38.7043C0.305248 38.7244 0.360133 38.7348 0.415575 38.7348H3.52622C3.74952 38.7348 3.93647 38.5645 3.94166 38.3552C4.04552 34.5985 5.65018 31.0803 8.49078 28.4136C11.4249 25.6545 15.33 24.1363 19.4845 24.1363C22.429 24.1363 25.254 24.9002 27.6895 26.3309C27.7521 26.3677 27.8239 26.3885 27.8977 26.391C27.9716 26.3936 28.0449 26.3779 28.1102 26.3455V26.3455ZM19.4845 20.438C17.1061 20.438 14.8679 19.5669 13.1801 17.9854C12.3497 17.2093 11.6914 16.2869 11.2431 15.2713C10.7948 14.2558 10.5654 13.1671 10.568 12.0681C10.568 9.83455 11.4976 7.73236 13.1801 6.15085C14.8627 4.56934 17.1009 3.6983 19.4845 3.6983C21.8681 3.6983 24.1011 4.56934 25.7889 6.15085C26.6193 6.92696 27.2776 7.84936 27.7259 8.86492C28.1742 9.88048 28.4036 10.9691 28.401 12.0681C28.401 14.3017 27.4714 16.4039 25.7889 17.9854C24.1011 19.5669 21.8629 20.438 19.4845 20.438ZM38.5846 32.0195H34.2224V27.9319C34.2224 27.7178 34.0354 27.5426 33.8069 27.5426H30.8988C30.6703 27.5426 30.4834 27.7178 30.4834 27.9319V32.0195H26.1212C25.8927 32.0195 25.7058 32.1946 25.7058 32.4088V35.1338C25.7058 35.3479 25.8927 35.5231 26.1212 35.5231H30.4834V39.6107C30.4834 39.8248 30.6703 40 30.8988 40H33.8069C34.0354 40 34.2224 39.8248 34.2224 39.6107V35.5231H38.5846C38.8131 35.5231 39 35.3479 39 35.1338V32.4088C39 32.1946 38.8131 32.0195 38.5846 32.0195Z" fill="#EBEBEB"/>
</svg>
