<svg width="55" height="68" viewBox="0 0 55 68" fill="none" xmlns="http://www.w3.org/2000/svg">
<path d="M36.6665 59.5V53.8333C36.6665 50.8275 35.7007 47.9449 33.9817 45.8195C32.2626 43.694 29.931 42.5 27.4998 42.5H11.4582C9.02702 42.5 6.69544 43.694 4.97636 45.8195C3.25728 47.9449 2.2915 50.8275 2.2915 53.8333V59.5" stroke="black" stroke-width="2" stroke-linecap="round" stroke-linejoin="round"/>
<path d="M19.4792 31.1667C24.5418 31.1667 28.6458 26.0926 28.6458 19.8333C28.6458 13.5741 24.5418 8.5 19.4792 8.5C14.4166 8.5 10.3125 13.5741 10.3125 19.8333C10.3125 26.0926 14.4166 31.1667 19.4792 31.1667Z" stroke="black" stroke-width="2" stroke-linecap="round" stroke-linejoin="round"/>
<path d="M41.25 22.6665L52.7083 36.8332" stroke="black" stroke-width="2" stroke-linecap="round" stroke-linejoin="round"/>
<path d="M52.7083 22.6665L41.25 36.8332" stroke="black" stroke-width="2" stroke-linecap="round" stroke-linejoin="round"/>
</svg>
