<svg width="189" height="180" viewBox="0 0 189 180" fill="none" xmlns="http://www.w3.org/2000/svg">
<path d="M85.2263 0.149918C69.9342 1.49606 55.3014 6.43198 42.3643 14.6585C36.147 18.5773 33.2895 20.8508 27.7316 26.1158C22.3306 31.2611 19.9756 33.9833 15.8307 39.8765C7.13267 52.291 1.79454 66.65 0.255907 81.8167C-0.277906 87.0219 0.0675026 98.4193 0.883922 103.445C3.14478 117.116 8.2003 129.291 16.2703 140.539C22.833 149.693 32.2533 158.607 41.7677 164.71C52.9778 171.86 65.4753 176.646 78.6322 178.8C90.1248 180.654 103.188 180.355 114.586 177.932C129.344 174.821 144.134 167.971 154.936 159.295C159.049 156.005 166.209 148.945 169.443 144.966C178.989 133.33 185.206 119.718 188.095 104.193C188.943 99.6458 189.288 86.3936 188.723 80.4706C187.09 63.6885 179.209 45.7996 167.496 32.2782C162.504 26.4747 154.81 19.8337 148.185 15.526C134.651 6.73112 120.332 1.73538 104.569 0.239655C101.586 -0.0295715 88.1152 -0.0894012 85.2263 0.149918ZM94.521 2.63283C94.6466 3.2012 94.8664 5.92343 94.992 8.67557L95.2118 13.7012H96.1852C96.719 13.7012 99.3567 13.9106 102.026 14.1499C104.695 14.3593 107.018 14.4491 107.144 14.2995C107.521 13.9704 108.337 9.78241 108.149 9.27386C108.086 9.09438 107.584 8.91489 107.081 8.91489C106.265 8.91489 106.108 9.06445 105.825 10.0217C105.637 10.6499 105.48 11.4875 105.48 11.8764V12.5944L102.277 12.385C100.487 12.2653 98.5716 12.0858 97.975 11.9961L96.9388 11.8166L97.1272 8.04736C97.2528 5.98326 97.4098 3.64992 97.504 2.84222L97.6924 1.43623L100.236 1.61572C108.149 2.15419 118.668 3.91914 118.668 4.66702C118.668 4.78667 117.977 7.38924 117.129 10.4704C115.999 14.5986 115.685 16.1542 115.968 16.3636C116.313 16.6628 126.77 19.9833 127.335 19.9833C127.492 19.9833 128.12 18.9363 128.685 17.6799C129.658 15.4961 129.69 15.3764 129.156 14.9875C128.245 14.3593 127.68 14.6585 126.927 16.1542C126.55 16.9021 126.11 17.62 125.922 17.7098C125.482 17.979 118.354 15.4961 118.354 15.0474C118.354 14.5687 119.987 9.33369 120.803 7.12001C121.369 5.59436 121.494 5.47472 122.342 5.50462C123.504 5.56445 130.538 8.31659 136.504 11.0388C141.716 13.432 141.496 12.8636 138.89 17.1713C136.629 20.8807 135.311 23.3337 135.311 23.7824C135.311 23.9619 136.41 24.8294 137.76 25.697C139.079 26.5346 141.277 28.0602 142.658 29.0773L145.108 30.8722L146.018 29.8551C148.059 27.4918 148.624 26.5346 148.279 26.026C147.651 25.0388 146.772 25.2782 145.641 26.6841C145.045 27.432 144.417 28.0303 144.26 27.9705C143.632 27.8508 137.854 23.7226 137.823 23.3935C137.823 23.0944 140.303 19.2055 142.313 16.3337C142.878 15.526 143.475 14.8978 143.663 14.8978C143.852 14.8978 145.265 15.7354 146.803 16.7525C152.487 20.4918 159.803 26.4747 159.803 27.4021C159.803 27.6414 157.95 29.7055 155.69 31.979L151.608 36.1072L155.407 40.4748C157.574 42.9278 159.426 44.8124 159.74 44.8124C160.557 44.8124 163.948 42.15 163.822 41.6115C163.603 40.5645 162.755 40.4748 161.405 41.3124C160.714 41.7611 159.929 42.1201 159.678 42.1201C159.458 42.1201 158.17 40.9833 156.82 39.5773C155.03 37.6927 154.465 36.9149 154.622 36.4662C154.716 36.1671 156.443 34.3722 158.453 32.5175L162.127 29.1371L163.508 30.6329C167.276 34.5517 174.875 44.603 174.875 45.6201C174.875 45.7996 172.395 47.2654 169.38 48.8808C166.397 50.4961 163.979 51.8722 164.011 51.962C164.199 52.2611 167.371 58.6628 168.313 60.6372L169.223 62.5218L170.354 62.3124C172.363 61.9534 174.404 60.8765 174.499 60.0987C174.687 58.9321 174.185 58.7825 172.238 59.3509C170.511 59.8594 170.479 59.8594 170.04 59.291C169.38 58.4534 167.088 53.9962 166.962 53.338C166.9 52.8295 167.59 52.3808 171.107 50.7355C177.042 47.9534 176.571 47.9534 177.733 50.4064C181.218 57.6756 184.39 66.3808 183.793 66.9492C183.605 67.1287 181.344 67.8466 178.769 68.5646C173.588 70.0005 172.489 70.3894 172.269 70.7483C172.081 71.0176 174.09 81.1287 174.404 81.6372C174.687 82.056 178.738 81.9663 179.397 81.5176C179.743 81.2783 179.931 80.8295 179.837 80.3808C179.743 79.6928 179.617 79.6629 177.702 79.6629H175.66L175.095 76.6714C174.813 75.0261 174.593 73.2911 174.624 72.7825C174.718 71.915 174.781 71.8851 178.33 71.0475C180.308 70.5987 182.631 70.1799 183.511 70.15L185.049 70.0902L185.458 71.7355C186.117 74.6372 187.153 82.5347 187.342 86.4535L187.53 90.2825H181.218H174.938L174.75 91.0902C174.656 91.5689 174.436 93.6031 174.247 95.6672C174.059 97.7313 173.839 100.035 173.776 100.783L173.619 102.159L176.194 102.488C179.052 102.817 179.586 102.667 179.586 101.471C179.586 100.932 179.366 100.723 178.738 100.573C178.235 100.483 177.45 100.304 176.917 100.184L175.975 99.9449L176.069 96.5347C176.1 94.6501 176.194 92.9449 176.288 92.7355C176.446 92.3167 183.793 92.227 186.023 92.6159L187.279 92.8552L187.216 94.9193C187.09 98.539 185.646 107.872 184.735 110.834C184.17 112.808 184.327 112.808 177.325 111.193C173.023 110.176 171.924 110.026 171.735 110.355C171.076 111.342 167.936 120.556 168.093 120.975C168.313 121.543 171.327 122.889 172.395 122.889C173.18 122.889 173.619 122.441 173.619 121.663C173.619 121.483 172.834 121.035 171.892 120.646C170.95 120.227 170.165 119.778 170.165 119.629C170.165 119.18 171.767 115.082 172.395 113.825C172.803 113.107 173.211 112.718 173.651 112.718C174.404 112.718 179.523 114.035 181.313 114.693C183.322 115.441 183.385 115.53 182.82 117.295C181.721 120.945 176.571 131.864 175.284 133.33L174.656 134.077L169.223 131.146C165.455 129.112 163.728 128.334 163.446 128.543C163.257 128.693 161.687 130.787 159.992 133.15C157.699 136.381 156.946 137.637 157.103 138.086C157.385 138.894 160.054 140.838 160.902 140.838C161.31 140.838 161.813 140.629 162.033 140.36C162.378 139.941 162.252 139.701 160.902 138.624C159.897 137.757 159.458 137.189 159.552 136.889C159.992 135.813 163.634 131.266 164.074 131.266C164.89 131.266 173.305 136.082 173.305 136.53C173.305 137.219 165.392 147.24 162.221 150.59L160.525 152.355L159.301 151.458C158.641 150.979 156.506 149.125 154.591 147.36C152.675 145.595 150.98 144.129 150.791 144.129C150.603 144.129 150.257 144.368 150.037 144.637C149.535 145.206 143.726 149.962 142.407 150.889L141.496 151.518L142.69 153.283C144.354 155.795 144.699 156.125 145.327 155.795C146.772 154.988 146.772 155.018 145.516 153.402L144.323 151.877L145.233 150.949C145.736 150.471 147.149 149.244 148.373 148.287L150.634 146.552L152.455 148.407C155.658 151.637 157.605 153.911 157.605 154.389C157.605 155.885 141.528 166.954 140.649 166.056C140.492 165.937 139.11 163.723 137.571 161.18C136.033 158.637 134.526 156.513 134.274 156.454C133.992 156.394 131.574 157.321 128.905 158.458C126.204 159.625 123.881 160.582 123.692 160.582C123.033 160.582 123.096 161.27 123.881 163.424C124.885 166.146 125.294 166.535 126.361 165.847L127.146 165.368L126.518 163.783C126.173 162.945 125.89 162.137 125.89 162.018C125.89 161.689 132.045 158.787 132.767 158.787C133.426 158.787 134.086 159.744 136.41 164.112C137.195 165.637 137.823 167.193 137.76 167.552C137.634 168.36 135.091 169.616 128.654 172.009C123.347 174.013 120.364 174.941 119.422 174.941C118.291 174.941 118.354 175.09 116.156 167.821C115.654 166.116 115.12 164.59 115.026 164.411C114.743 163.992 111.634 164.231 106.642 165.099L102.591 165.757L102.779 167.432C103.219 170.992 103.313 171.351 103.91 171.351C104.758 171.351 105.511 170.513 105.354 169.766C104.789 167.073 104.726 167.223 106.516 166.894C113.236 165.667 112.702 165.697 113.173 166.385C113.55 166.924 115.245 173.086 115.591 175.09C115.654 175.479 115.402 175.778 114.869 176.048C113.204 176.825 101.9 178.201 97.0958 178.231H94.1755V172.278V166.355L92.6683 166.146C89.591 165.757 83.0911 165.368 82.3689 165.548C81.8036 165.697 81.5838 166.056 81.3326 167.193C80.7988 169.586 80.893 170.693 81.6466 170.902C82.5887 171.201 83.0911 170.573 83.4051 168.808L83.6877 167.313L86.7964 167.372C88.5234 167.402 90.4075 167.492 90.9727 167.612L91.9775 167.791V170.274C91.9775 171.65 91.8833 173.984 91.7891 175.479L91.5693 178.231H89.7794C85.7915 178.231 72.4148 176.107 70.9704 175.24C70.5936 175.031 70.7192 174.193 71.8496 169.945C73.6709 163.244 73.6709 163.573 71.567 162.945C70.625 162.676 68.0501 161.838 65.8207 161.09L61.8328 159.714L61.3304 160.432C60.5453 161.569 59.6347 164.112 59.8231 164.59C60.0429 165.099 61.0478 165.488 61.4874 165.248C61.6444 165.159 61.927 164.471 62.1154 163.753C62.5236 162.167 62.7434 161.988 63.9052 162.347C64.4076 162.496 66.0719 162.975 67.5791 163.424C69.1177 163.872 70.4366 164.411 70.4994 164.62C70.6878 165.039 70.4366 166.026 68.9921 170.872C68.4269 172.637 67.7989 174.193 67.5477 174.253C66.0091 174.821 48.3304 167.283 48.3304 166.056C48.3304 165.787 49.3039 163.962 50.4971 161.958C53.229 157.411 53.7942 156.244 53.5744 155.736C53.4174 155.317 45.2846 149.663 44.4054 149.334C43.7145 149.065 40.7943 152.385 40.7943 153.462C40.7943 154.449 42.1759 154.12 43.4319 152.804C44.0599 152.146 44.6252 151.607 44.7508 151.607C45.159 151.607 51.1565 155.885 51.1565 156.184C51.1565 156.573 45.8184 165.069 45.5672 165.069C45.2532 165.069 40.1035 161.509 36.7122 158.936C32.2533 155.556 29.176 152.864 29.176 152.355C29.176 152.146 31.06 150.112 33.3209 147.868C35.6131 145.595 37.4972 143.62 37.4972 143.501C37.4972 143.381 36.0528 141.676 34.2943 139.731C32.5673 137.787 30.7774 135.813 30.3378 135.334L29.5842 134.436L27.5118 135.902C26.3813 136.68 25.3765 137.518 25.2823 137.727C25.1881 137.936 25.3765 138.415 25.6905 138.774L26.2557 139.462L27.92 138.295L29.5842 137.129L30.9972 138.595C31.7509 139.432 32.9441 140.808 33.6663 141.676L34.9223 143.261L33.2267 144.907C31.1228 146.941 27.2605 149.813 26.6011 149.813C25.4393 149.813 13.7268 134.766 14.2606 133.958C14.3234 133.838 16.7413 132.432 19.5988 130.817C22.4562 129.201 24.7799 127.736 24.7799 127.586C24.7799 126.988 19.9128 117.505 19.536 117.385C18.7823 117.086 14.4176 118.701 14.4176 119.27C14.4176 120.526 15.4539 120.795 17.3379 120.048C17.9659 119.808 18.5939 119.599 18.7509 119.599C19.2534 119.599 22.3934 126.33 22.1108 126.808C21.9224 127.077 13.2872 131.565 12.9104 131.565C12.1568 131.565 5.75104 116.907 5.15442 113.855C4.96602 112.838 4.99742 112.778 6.15925 112.33C6.85006 112.09 9.29932 111.372 11.623 110.774C13.9466 110.146 16.0819 109.607 16.3959 109.518C16.6785 109.428 16.9297 109.159 16.9297 108.889C16.9297 108.411 15.1085 98.8082 14.8573 98.0304C14.7631 97.6714 14.3234 97.5817 12.7534 97.6714C9.39353 97.8808 8.79691 98.2099 9.26792 99.6458C9.45633 100.184 9.64473 100.214 11.4346 100.035L13.4128 99.8552L13.8838 102.458C14.8887 107.783 14.8573 107.603 14.0408 107.902C12.6906 108.381 5.34283 109.787 4.65201 109.667C4.0868 109.607 3.86699 109.308 3.67859 108.441C3.17618 106.077 1.88875 96.2954 1.70034 93.0646L1.48054 89.6842L7.85489 89.6244L14.2606 89.5347L14.5118 87.2911C14.6374 86.0646 14.9515 83.4321 15.2027 81.4577C15.4539 79.4834 15.5481 77.7782 15.4225 77.6586C15.2969 77.5389 13.978 77.3894 12.5336 77.3594C9.92734 77.2697 9.86454 77.2996 9.77033 77.9876C9.61333 78.8552 10.1471 79.2141 11.623 79.2141C13.3186 79.2141 13.6012 79.7227 13.35 82.4449C13.2244 83.7013 13.0674 85.4065 12.9418 86.1842L12.7534 87.6501L8.79691 87.4706C6.63026 87.3509 4.181 87.2013 3.36458 87.1116L1.85735 86.9321V85.1971C1.85735 82.2355 3.39598 72.1543 4.40081 68.3552C4.68341 67.3979 4.80902 67.2483 5.65684 67.2483C6.15925 67.2483 8.82831 67.7868 11.5916 68.4449C14.3548 69.103 16.8041 69.6415 17.0239 69.6415C17.3379 69.6415 18.1229 67.8765 19.4104 64.3466C21.6084 58.3637 21.6398 58.8423 18.6881 57.4064C16.6785 56.4492 15.8935 56.509 15.5795 57.6757C15.4539 58.1543 15.6423 58.3936 16.5529 58.7526C17.1809 58.9919 17.9973 59.2611 18.4055 59.3509C18.8137 59.4705 19.1278 59.6201 19.1278 59.7398C19.0964 59.8295 18.4997 61.5346 17.7775 63.509C16.2389 67.6671 16.6157 67.4876 11.9056 66.1415C10.4297 65.7526 8.4201 65.1842 7.44668 64.9449C6.44185 64.6757 5.62544 64.3167 5.62544 64.1372C5.62544 63.7483 7.88629 58.0047 9.23652 54.9833C10.524 52.0816 13.7268 46.0987 14.1036 45.8594C14.2606 45.7696 16.7099 46.9064 19.536 48.3722C22.3306 49.8679 24.7799 51.0944 24.9683 51.0944C25.1567 51.0944 25.5963 50.7953 25.9417 50.4064C27.1349 49.15 32.0021 42.15 32.0021 41.6713C32.0021 41.1628 28.2968 38.4705 27.8258 38.6201C27.6374 38.6799 27.3548 38.9491 27.1663 39.2184C26.8837 39.6072 27.1035 39.9662 28.234 41.0731L29.6156 42.4192L27.8258 44.9021C26.8523 46.2782 25.7533 47.6543 25.4079 47.9534C24.7799 48.4919 24.7171 48.4919 23.6181 47.9833C22.1108 47.2953 16.7727 44.0047 16.3017 43.4662C16.0191 43.1671 16.0819 42.838 16.4901 42.0602C17.8089 39.5474 25.3451 30.4534 28.1084 28.0004L29.019 27.1927L33.5721 31.3807C36.0842 33.6542 38.2822 35.5389 38.4706 35.5389C38.6276 35.5389 39.1928 35.1201 39.7266 34.6115C40.2291 34.103 42.2387 32.3978 44.1856 30.8423L47.7338 27.9705L47.2 27.1927C45.8184 25.1286 44.4682 23.8423 43.8087 23.932C42.8039 24.0816 42.8353 25.1585 43.9029 26.5944C45.0334 28.0602 45.1904 27.8209 41.4223 30.8722L38.659 33.1457L34.9223 29.3764C32.8813 27.3123 31.217 25.5175 31.217 25.3679C31.217 24.3209 46.6348 13.4021 48.142 13.4021C48.2676 13.4021 50.3087 16.573 53.3232 21.3893C54.0768 22.5858 54.7676 23.573 54.8932 23.573C55.3956 23.5431 65.4753 18.7568 65.6951 18.4277C65.8521 18.1884 65.6009 17.2012 65.067 15.9448C64.3134 14.1499 64.0622 13.8508 63.3086 13.761C62.1782 13.6414 61.9584 14.2397 62.5864 16.0046C62.869 16.7525 63.0888 17.5602 63.0888 17.7397C63.0888 18.1286 57.1541 20.8807 56.3376 20.8807C55.6468 20.8807 51.1565 13.432 51.1565 12.2653C51.1565 11.5773 53.1976 10.5004 57.9077 8.61574C62.4294 6.82086 68.6781 4.72684 69.5574 4.72684C70.6564 4.72684 71.096 5.59436 72.352 10.2311C73.7337 15.2867 74.1419 16.1542 75.1153 15.9448C75.4921 15.885 77.9414 15.4662 80.5162 15.0474C87.079 13.9704 86.451 14.3593 86.2312 11.5474C86.0113 8.79523 85.9171 8.61574 84.9123 8.61574C84.2843 8.61574 84.1273 8.79523 84.0017 9.573C83.9389 10.1115 83.8761 11.0388 83.9075 11.6072L83.9703 12.6542L80.6732 13.2824C75.8061 14.2397 76.0887 14.3294 75.3665 12.0858C74.3931 9.06445 73.3568 4.09863 73.6395 3.82941C74.0791 3.44052 78.0356 2.72256 82.4003 2.21402C88.4606 1.52599 88.4606 1.52599 91.5065 1.55589L94.3011 1.58582L94.521 2.63283Z" fill="black"/>
<path d="M86.0163 3.78534C81.7124 4.23735 78.4212 4.74963 78.168 4.99071C77.9149 5.23178 78.6744 9.26976 79.0858 9.99298C79.339 10.445 79.6871 10.5655 80.4149 10.5053L81.4276 10.4149L81.3327 8.27533L81.2377 6.13582L85.1302 5.80434C88.5164 5.53313 89.0544 5.53313 89.4025 5.95502C89.8139 6.46729 90.0987 8.87802 90.2253 12.7955L90.2886 15.5076L89.0227 15.7185C88.3265 15.839 86.2062 16.1705 84.2758 16.4417C81.3327 16.8636 75.0034 18.0991 73.3262 18.5813C72.9464 18.6717 72.5034 17.6772 71.1426 13.4283C70.2248 10.5354 69.2754 7.91373 69.0539 7.61238C68.6742 7.13023 68.5159 7.16037 66.1425 7.91373C62.25 9.17937 55.8891 11.8312 55.7308 12.2832C55.541 12.7051 56.1739 14.1214 57.4397 16.2007C58.2309 17.4964 58.2309 17.4964 59.1486 17.0444C60.2246 16.502 60.2879 15.9294 59.4334 14.1515C59.117 13.4283 58.9271 12.7352 59.0853 12.5845C59.5917 12.1024 65.6045 10.2341 66.364 10.3245C67.0602 10.4149 67.3134 10.8367 68.6742 14.3323C69.497 16.4719 70.1615 18.4908 70.1932 18.7922C70.1932 19.1839 69.6235 19.5757 68.3893 20.1181C67.3767 20.54 63.9272 22.0768 60.6677 23.5534C57.4397 25.03 54.5916 26.2354 54.3384 26.2354C54.1169 26.2354 52.5662 24.1862 50.9206 21.6851C49.275 19.2141 47.756 17.0444 47.5344 16.8636C46.8382 16.3212 36.0152 23.7041 36.0152 24.7286C36.0152 24.9998 36.8697 26.0847 37.8823 27.1394C39.4646 28.7968 39.8444 29.0378 40.3191 28.7666C41.5533 28.0735 41.5849 27.5613 40.3507 25.9039L39.1798 24.3369L41.9647 22.3782C45.5724 19.8168 46.0154 19.636 46.6167 20.3893C47.9775 22.0467 51.8383 27.6517 51.8383 27.953C51.8383 28.1338 50.8573 28.9776 49.6864 29.7912C46.9648 31.6595 40.8254 36.7221 39.7178 37.9877C38.6418 39.1931 38.895 39.3136 33.1987 34.4319C29.8758 31.5691 28.8631 30.8459 28.515 31.087C27.2175 32.1417 20.1921 40.9409 20.1921 41.5435C20.1921 41.9052 21.9643 43.2009 23.5782 44.0146C24.9707 44.7076 25.7618 44.5871 26.0783 43.6228C26.2365 43.1105 25.9833 42.7489 24.8124 41.7545L23.3251 40.5491L24.2744 39.1931C24.8124 38.4397 25.9833 37.0234 26.9327 36.029L28.6416 34.2209L30.1923 35.4263C34.0215 38.4096 35.9836 40.1272 36.1734 40.6998C36.3317 41.1819 35.7304 42.1462 33.5784 44.8583C32.0278 46.7869 29.8758 49.7702 28.7682 51.4577C27.6289 53.1754 26.5213 54.5615 26.2682 54.5615C26.015 54.5615 23.4833 53.4164 20.6668 52.0001C17.8186 50.5838 15.3818 49.4387 15.2236 49.4387C14.654 49.4387 10.3184 58.8105 9.90703 60.9199C9.68551 62.0047 9.71716 62.0047 11.3628 62.6978C12.3122 63.0594 13.578 63.4511 14.2109 63.5114C15.192 63.6621 15.4451 63.5717 15.7616 62.9991C16.2996 62.065 15.9831 61.613 14.3375 60.9199C13.5464 60.5884 12.8185 60.1062 12.7236 59.8652C12.502 59.3228 15.097 53.0548 15.635 52.8439C16.2363 52.6329 23.3251 55.7368 24.3694 56.6709L25.2238 57.4243L23.3883 61.7938C22.4073 64.2045 21.1098 67.5193 20.5718 69.1767C20.0022 70.834 19.4326 72.3709 19.2743 72.612C19.0212 72.9736 18.0085 72.8229 13.0717 71.7682C9.8121 71.045 7.02722 70.593 6.86899 70.7436C6.52088 71.0751 5.06515 79.7839 4.93857 82.285L4.84363 84.2438L7.2171 84.3342C10.3501 84.4547 11.0147 84.2739 11.0147 83.3398C11.0147 82.5261 10.2235 81.9837 8.98929 81.9837C7.53356 81.9837 7.2171 81.6824 7.2171 80.4167C7.2171 78.5785 8.19814 73.8173 8.60954 73.6667C9.14752 73.4858 17.9452 75.2035 18.3249 75.5651C18.5465 75.7761 18.4832 77.4334 18.1667 80.6578C17.8819 83.2493 17.6604 86.7751 17.6604 88.4626C17.6604 90.4514 17.5338 91.6869 17.249 91.9883C16.9325 92.38 15.635 92.5307 10.6982 92.832C7.31204 93.0128 4.49552 93.2238 4.43223 93.284C4.30564 93.4046 5.28668 101.601 5.72973 104.132C6.10948 106.242 6.10948 106.242 7.2171 106.332C8.73612 106.483 11.9957 105.79 12.1856 105.277C12.2805 105.067 12.2489 104.524 12.1539 104.102C11.9324 103.319 11.9007 103.319 9.78045 103.53L7.6285 103.741L7.43863 102.565C7.31204 101.933 7.15381 100.125 7.02722 98.5274C6.8057 95.6647 6.8057 95.6345 7.56521 95.4537C8.13484 95.3332 15.1287 94.851 17.1857 94.7908C17.3439 94.7908 17.6604 96.0865 17.8819 97.6535C18.1034 99.2205 18.7363 102.716 19.2743 105.428C20.4136 111.003 20.3503 111.515 18.3882 112.329C17.7553 112.57 15.7932 113.173 14.0527 113.685C9.78045 114.89 9.11588 115.252 9.11588 116.307C9.11588 117.843 13.4514 128.119 14.116 128.089C14.2426 128.089 15.3502 127.577 16.5528 126.944C18.3249 126.04 18.7996 125.678 18.8629 125.046C19.0212 123.75 18.3249 123.509 16.3629 124.172C15.0337 124.594 14.559 124.654 14.2742 124.383C13.7679 123.9 11.6476 118.627 11.6476 117.874C11.6476 117.452 12.0273 117.09 12.8185 116.759C14.6856 116.035 20.3819 114.227 20.9199 114.227C21.2048 114.227 21.9959 115.523 23.0402 117.753C23.958 119.712 25.6985 123.117 26.9011 125.317C28.1353 127.517 29.053 129.385 29.0214 129.415C28.4517 129.837 24.5593 132.217 22.4073 133.453C18.1034 135.894 18.1984 135.623 20.6984 139.118C21.8693 140.776 23.7365 143.216 24.8757 144.573C27.1859 147.375 26.996 147.345 29.6227 145.115C31.3632 143.608 31.6164 142.945 30.6986 142.162C30.2556 141.77 30.0341 141.74 29.4961 142.041C29.1163 142.252 28.3568 142.644 27.7555 142.975L26.7112 143.548L25.6352 142.373C24.1479 140.715 21.7744 137.521 21.7744 137.16C21.7744 136.979 23.7365 135.593 26.1099 134.086L30.4455 131.313L31.0784 132.067C31.4581 132.489 32.5974 133.875 33.6417 135.171C34.6861 136.466 36.9329 139.028 38.6102 140.836C40.3191 142.674 41.7115 144.301 41.7115 144.482C41.7115 144.693 39.8444 146.682 37.5975 148.942C35.319 151.202 33.4835 153.131 33.4835 153.251C33.4835 153.733 39.2431 158.374 42.9457 160.875L44.8445 162.141L46.4585 159.82C47.3129 158.525 48.0408 157.289 48.0408 157.108C48.0408 156.596 46.5851 155.722 46.1737 155.963C45.9838 156.054 45.3825 156.747 44.8129 157.5C44.2749 158.223 43.6103 158.796 43.4204 158.766C42.5976 158.585 37.2811 154.185 37.2811 153.673C37.2811 153.402 38.8001 151.534 40.6356 149.515L43.9901 145.838L44.9711 146.592C48.4205 149.273 52.5029 152.076 55.2878 153.703C57.0283 154.728 58.4841 155.752 58.4841 155.993C58.4841 156.234 57.3448 158.555 55.9524 161.146C54.5599 163.738 53.4207 166.149 53.4207 166.51C53.4207 167.113 54.0219 167.444 57.7878 169.011C63.7057 171.513 65.4779 172.145 65.9526 171.965C66.1741 171.874 66.7437 170.639 67.2184 169.222C68.1362 166.39 68.0729 166.058 66.4589 166.058C65.9209 166.058 65.6045 166.42 64.9715 167.716C64.5601 168.62 64.0222 169.373 63.769 169.373C62.9778 169.373 56.9017 166.39 56.7119 165.908C56.5853 165.667 56.6802 165.004 56.9017 164.461C57.2815 163.617 60.2246 158.434 60.9841 157.349C61.2056 157.018 62.0284 157.229 65.3513 158.464C69.402 160.001 73.8642 161.448 76.5224 162.141C78.0731 162.533 78.0731 161.99 76.5224 168.469C75.9845 170.699 75.573 173.019 75.6363 173.592L75.7313 174.647L78.263 175.159C81.839 175.912 89.1493 176.244 89.5291 175.671C89.6873 175.43 89.8139 174.225 89.8139 172.959C89.8139 170.428 89.5291 170.036 88.105 170.578C87.3138 170.85 86.9657 171.633 86.9657 173.2C86.9657 173.712 86.8391 174.225 86.6809 174.315C86.3011 174.556 80.0352 173.622 79.3073 173.23C78.8643 173.019 78.7377 172.597 78.7377 171.392C78.7693 169.825 80.0352 163.798 80.4466 163.437C80.5732 163.316 83.1682 163.467 86.2695 163.738C89.3392 164.009 93.3266 164.341 95.1304 164.431L98.3584 164.642L98.39 167.233C98.39 170.91 98.8647 176.304 99.1812 176.605C99.3394 176.726 101.175 176.666 103.264 176.455C107.124 176.063 108.264 175.912 111.302 175.34L113.011 175.038L112.821 173.351C112.504 170.548 112.061 169.373 111.238 169.373C109.878 169.373 109.656 169.765 109.814 171.874L110.004 173.833L108.517 174.014C107.726 174.104 105.827 174.255 104.34 174.375C101.966 174.526 101.586 174.496 101.428 174.074C101.301 173.773 101.112 171.482 101.017 168.921L100.795 164.28L101.871 164.13C102.472 164.039 104.593 163.768 106.586 163.497C108.58 163.256 111.998 162.653 114.181 162.171C116.713 161.629 118.201 161.448 118.359 161.629C118.454 161.809 119.308 164.341 120.226 167.324C121.618 171.784 122.03 172.688 122.504 172.688C123.169 172.688 130.764 170.036 133.707 168.77C135.638 167.927 135.669 167.896 135.384 167.053C134.846 165.636 133.011 162.894 132.505 162.804C132.252 162.774 131.777 162.924 131.429 163.135C130.859 163.557 130.859 163.587 131.492 165.214C131.872 166.119 132.062 167.023 131.935 167.203C131.745 167.535 125.289 169.976 124.656 169.976C124.118 169.976 121.65 163.919 121.27 161.538L121.08 160.453L124.372 159.158C126.144 158.434 129.751 156.807 132.315 155.541C136.271 153.613 137.062 153.311 137.315 153.703C144.499 164.642 143.644 163.587 144.942 162.924C146.461 162.141 154.404 156.355 154.815 155.752C155.227 155.12 154.879 154.517 152.822 152.227L151.429 150.66L150.511 151.473C150.037 151.925 149.625 152.438 149.625 152.618C149.625 152.799 150.195 153.492 150.923 154.185L152.189 155.421L150.828 156.536C150.068 157.169 148.486 158.284 147.315 159.067L145.163 160.483L144.53 159.73C143.549 158.495 139.182 152.287 139.182 152.106C139.182 151.986 140.859 150.63 142.916 149.093C144.942 147.526 147.98 145.085 149.625 143.638C151.271 142.222 152.695 141.047 152.79 141.047C152.885 141.077 153.961 141.951 155.163 143.036C159.499 146.893 161.683 148.58 162.252 148.58C163.265 148.58 170.987 139.028 170.638 138.214C170.385 137.612 166.809 135.321 166.081 135.321C165.512 135.321 164.499 136.225 164.499 136.707C164.499 136.888 165.132 137.431 165.923 137.973C166.714 138.485 167.347 139.088 167.347 139.299C167.316 139.872 166.778 140.685 164.531 143.427C162.537 145.868 162.505 145.898 161.841 145.326C160.923 144.573 154.562 139.45 154.404 139.329C154.246 139.239 154.562 138.847 158.36 134.086C159.594 132.519 161.429 129.988 162.442 128.451C163.613 126.643 164.436 125.678 164.816 125.678C165.132 125.678 167.79 126.823 170.702 128.24L176.05 130.801L177.063 128.933C177.601 127.878 178.866 125.106 179.879 122.725C181.999 117.783 182.031 117.964 178.803 116.939C176.588 116.246 175.955 116.307 175.322 117.271C174.784 118.085 175.132 118.446 177.253 119.169C178.075 119.471 178.74 119.832 178.74 119.953C178.74 120.375 177.664 122.846 176.525 125.166C175.639 126.944 175.385 127.185 174.816 127.004C172.949 126.462 166.081 123.117 166.081 122.785C166.081 122.544 166.524 121.339 167.094 120.043C167.632 118.747 168.898 115.372 169.879 112.57C171.525 107.99 171.778 107.447 172.442 107.357C172.854 107.327 175.607 107.748 178.55 108.321C181.493 108.894 183.993 109.315 184.12 109.255C184.499 109.044 185.037 106.694 185.702 102.415C186.367 98.2261 186.493 95.8455 186.113 95.8455C185.955 95.8455 184.943 95.6948 183.803 95.514C180.955 95.0921 180.322 95.2729 180.322 96.629C180.322 97.774 180.385 97.8042 182.664 98.1055L184.215 98.3165L183.993 100.004C183.898 100.938 183.645 102.776 183.424 104.042C183.012 106.754 183.107 106.724 179.278 105.91C177.094 105.458 172.664 104.313 172.474 104.132C172.442 104.102 172.569 103.078 172.759 101.842C172.949 100.607 173.202 96.9604 173.328 93.7361L173.518 87.8599L174.784 87.6489C175.48 87.5585 178.455 87.3476 181.367 87.2271C184.278 87.1065 186.715 86.9257 186.778 86.8353C186.873 86.6545 186.367 82.1042 185.67 76.9513C185.164 73.0338 185.164 73.0338 181.936 73.6968C180.48 73.9981 179.246 74.42 179.151 74.6611C179.056 74.872 179.088 75.4144 179.183 75.8363C179.404 76.6198 179.468 76.6198 181.082 76.4691C181.999 76.3787 182.917 76.4089 183.139 76.5294C183.677 76.8609 184.056 78.3375 184.278 81.3509C184.499 83.852 184.468 84.063 183.867 84.3643C183.297 84.6656 173.993 85.3889 173.74 85.1478C173.676 85.1177 173.423 83.5206 173.17 81.6522C172.917 79.7538 172.347 76.5294 171.873 74.4501C171.43 72.3709 170.987 70.2012 170.923 69.5985L170.765 68.4836L172.949 67.7302C174.12 67.3083 176.525 66.555 178.265 66.0427C182.348 64.8373 182.348 64.8373 182.158 63.3607C181.968 62.0951 178.328 53.1754 177.632 52.2412C177.253 51.7289 177.094 51.7591 175.227 52.6028C174.151 53.1151 172.917 53.7479 172.506 54.0493C171.809 54.5615 171.809 54.6519 172.252 55.4957C172.79 56.46 173.423 56.5805 174.626 55.9176C176.177 55.0738 176.683 55.3149 177.696 57.3339C178.234 58.3886 178.898 59.9556 179.215 60.8596C179.847 62.7279 180.006 62.5772 176.493 63.873C173.297 65.0483 170.322 65.8317 169.784 65.6208C169.562 65.5304 169.024 64.6264 168.645 63.6018C168.265 62.6074 166.651 59.2926 165.1 56.3093C162.759 51.8193 162.315 50.7948 162.664 50.4633C163.107 50.0414 171.904 44.7378 172.506 44.5268C172.759 44.4364 172.632 43.9844 172.126 43.0804C171.145 41.3929 167.126 36.0892 165.512 34.3716L164.278 33.0457L163.043 33.8292C162.347 34.2812 161.239 35.0948 160.575 35.6674L159.309 36.6919L160.037 37.6261C160.417 38.1685 160.891 38.5904 161.081 38.5904C161.239 38.5904 161.999 38.1685 162.759 37.6562C163.55 37.1138 164.372 36.7823 164.626 36.8727C165.227 37.1138 169.246 41.9052 169.246 42.4174C169.246 42.6284 168.93 43.0804 168.55 43.442C167.252 44.6172 161.239 48.2635 160.733 48.1731C160.48 48.1128 159.309 46.9075 158.17 45.4309C156.018 42.7489 154.562 41.1819 151.018 37.6864L149.024 35.7276L149.878 34.7935C150.353 34.2812 152.315 32.2622 154.214 30.3035C156.144 28.3447 157.695 26.6572 157.695 26.5367C157.695 26.0847 147.094 18.0991 146.492 18.0991C146.144 18.0991 143.802 20.992 143.264 22.0768C142.98 22.7398 142.98 23.011 143.296 23.3726C143.961 24.126 144.783 23.8849 146.176 22.4686C146.935 21.7152 147.632 21.1427 147.758 21.1728C148.359 21.3837 154.056 26.0244 154.056 26.3258C154.056 26.6271 151.841 29.1282 148.803 32.2321L147.189 33.8895L143.264 31.1472C141.112 29.6405 137.853 27.501 136.017 26.386C134.182 25.2711 132.663 24.3068 132.6 24.2766C132.536 24.2164 133.834 21.8358 135.479 18.9429C137.125 16.0801 138.423 13.6091 138.328 13.4584C137.853 12.7352 126.239 8.03426 125.353 8.21507C124.815 8.30547 123.517 11.0477 123.169 12.8557C123.011 13.7598 123.074 13.8502 123.96 14.031C125.226 14.3022 125.701 13.9104 126.397 12.1928C126.682 11.4696 127.093 10.8669 127.315 10.8669C128.232 10.8669 134.752 13.6995 134.752 14.0912C134.752 14.2118 133.739 16.2609 132.536 18.6415C130.479 22.5891 130.258 22.9507 129.593 22.7398C129.213 22.6494 127.251 21.9261 125.258 21.2029C121.555 19.8168 118.201 18.7319 115.922 18.1292C113.327 17.4663 113.39 17.6772 114.656 12.0723C115.257 9.33003 115.859 6.73849 115.954 6.31662C116.112 5.56326 116.017 5.50299 114.593 5.17152C111.049 4.41817 102.82 3.33333 102.219 3.54427C101.713 3.7552 101.491 4.65924 101.428 6.9193C101.365 8.48628 101.46 8.87802 101.998 9.23962C102.979 9.93272 103.548 9.63138 103.865 8.30547C104.434 5.65366 104.466 5.65366 106.808 5.86461C109.593 6.1358 111.776 6.61795 112.378 7.03984C112.789 7.37131 112.757 7.88359 111.966 11.6202C110.859 16.8033 110.795 16.9841 109.941 16.7732C108.992 16.5623 103.39 16.05 98.3267 15.6884C95.9849 15.5377 93.8329 15.3268 93.5481 15.2363C92.9785 15.0254 92.662 12.1627 92.662 6.88916V3.33333L91.1747 3.36346C90.3202 3.3936 88.01 3.5744 86.0163 3.78534ZM104.181 17.9484C131.935 21.0523 155.322 37.8672 165.986 62.3965C170.385 72.4914 172.379 84.2438 171.493 94.8812C170.575 105.549 168.423 113.263 163.834 122.062C159.119 131.103 152.41 139.179 144.245 145.688C126.365 159.941 101.871 165.636 79.2757 160.785C67.3767 158.223 56.3321 153.161 47.8826 146.411C44.3698 143.608 37.8507 137.25 34.9709 133.815C29.0214 126.763 24.0529 116.819 21.6162 107.146C19.8756 100.185 19.749 98.9192 19.7174 89.9693C19.7174 80.7482 19.9705 78.8497 22.0908 70.9847C24.401 62.4869 29.4644 52.6932 35.319 45.5213C39.9393 39.856 47.218 33.4374 53.5789 29.4597C58.0094 26.6874 66.8387 22.5891 71.9337 20.9619C76.1427 19.6359 83.2631 18.2498 88.8645 17.7074C91.9025 17.406 100.542 17.5567 104.181 17.9484Z" fill="#42576E"/>
<path d="M130.867 53.6293C130.381 53.9779 130.26 54.9005 130.665 55.3105C130.928 55.577 131.617 55.6385 132.144 55.4335C132.407 55.331 132.427 55.2695 132.204 55.126C132.002 54.9825 132.022 54.9415 132.306 54.9415C132.792 54.9415 132.731 54.3879 132.144 53.8139C131.576 53.2193 131.475 53.1988 130.867 53.6293ZM132.326 54.2239C132.387 54.3879 132.346 54.5314 132.245 54.5314C132.123 54.5314 132.042 54.3879 132.042 54.2239C132.042 54.0599 132.083 53.9164 132.123 53.9164C132.164 53.9164 132.245 54.0599 132.326 54.2239ZM130.928 54.7365C130.969 54.9825 130.948 55.1465 130.888 55.0645C130.807 54.9825 130.726 54.7365 130.685 54.4904C130.645 54.2444 130.665 54.1009 130.726 54.1624C130.786 54.2239 130.888 54.4904 130.928 54.7365Z" fill="black"/>
<path d="M57.7027 53.4716C57.5718 53.5872 57.4737 61.8523 57.4737 71.8514V90H67.9737H78.4737L78.3429 89.0463L78.2447 88.1216L69.1513 87.9771L60.0578 87.8326L59.9924 70.6376L59.927 53.4427L58.9457 53.356C58.3896 53.2982 57.8335 53.356 57.7027 53.4716ZM59.24 53.7606C59.8943 53.9918 59.927 54.3675 59.2728 54.3675C59.0111 54.3675 58.8802 54.2519 58.9784 54.1363C59.0438 54.0207 58.9129 53.8473 58.7167 53.7895C58.4877 53.7028 58.3896 53.6161 58.5204 53.6161C58.6186 53.5872 58.9457 53.6739 59.24 53.7606ZM58.0298 82.544C57.9316 82.7752 57.8335 82.6885 57.8335 82.3707C57.8008 82.0528 57.8989 81.8794 57.9971 81.995C58.0952 82.0817 58.1279 82.3418 58.0298 82.544Z" fill="black"/>
<path d="M93.5158 57.484C89.9843 60.8378 89.2074 61.7012 89.6311 61.9668C90.62 62.5645 91.2203 62.2657 94.7519 59.41C96.6942 57.8493 98.8132 56.189 99.4488 55.7573C100.049 55.2925 100.579 54.7944 100.579 54.6948C100.579 54.4955 98.3541 53.3333 98.0009 53.3333C97.9656 53.3333 95.9526 55.1928 93.5158 57.484Z" fill="#42576E"/>
<path d="M114.343 62.5072C113.501 62.7169 112.691 62.8966 112.566 62.9265C112.13 62.9265 109.606 65.5023 109.108 66.4009C108.422 67.7188 108.142 70.055 108.547 71.4926C109.014 73.1999 110.759 74.997 112.816 75.9255C115.433 77.1235 118.175 77.9622 118.58 77.7226C118.798 77.6027 118.861 77.6327 118.767 77.8124C118.518 78.2018 119.39 78.5911 119.858 78.2916C120.076 78.2018 120.107 78.2617 119.982 78.4414C119.858 78.6511 119.889 78.8008 120.076 78.8008C120.543 78.8008 121.602 80.6278 121.821 81.8259C122.319 84.4616 120.325 87.4568 117.645 88.0858C115.745 88.5051 114.124 88.1457 112.473 86.8877C111.819 86.3785 111.414 85.9892 111.569 85.9892C111.694 85.9892 111.569 85.8095 111.258 85.5998C110.884 85.3302 110.697 84.8211 110.697 84.1022C110.697 82.994 110.666 82.994 109.451 82.994C108.298 82.994 108.204 83.0539 108.391 83.6529C108.485 84.0423 108.578 84.5814 108.578 84.851C108.578 85.1206 108.765 85.5399 108.983 85.7496C109.201 85.9592 109.451 86.2587 109.482 86.4384C109.638 87.0974 111.445 88.7148 112.722 89.3138C114.654 90.2722 117.645 90.2123 119.484 89.2239C120.263 88.8046 120.855 88.2954 120.792 88.0858C120.761 87.9061 120.823 87.8162 120.979 87.9061C121.135 87.9959 121.571 87.7563 121.945 87.3669C122.475 86.8278 122.568 86.4983 122.35 86.079C121.945 85.3602 122.07 84.1022 122.568 84.0124C122.755 83.9824 122.786 84.0124 122.6 84.1022C122.413 84.1921 122.413 84.4317 122.631 84.851C122.88 85.3003 122.88 85.4201 122.631 85.2703C122.226 85.0008 122.194 85.3901 122.6 85.9892C122.818 86.3186 122.942 86.2288 123.254 85.5399C124.251 83.0839 123.815 79.6994 122.288 78.2018C121.073 77.0037 119.889 76.3148 119.453 76.5844C119.203 76.7342 119.172 76.6743 119.328 76.4047C119.515 76.1052 119.421 76.0453 118.923 76.1651C118.549 76.2849 118.3 76.225 118.424 76.0752C118.518 75.9255 118.362 75.8057 118.113 75.8057C117.614 75.8057 116.181 75.2665 113.937 74.2182C113.221 73.8888 112.193 73.1699 111.694 72.6009C110.853 71.7023 110.759 71.3728 110.759 69.5458C110.759 67.7487 110.884 67.3593 111.694 66.2811C112.909 64.6637 114.062 64.1246 116.274 64.1246C117.708 64.1246 118.331 64.2743 119.266 64.8734C120.45 65.6521 121.665 67.5391 121.665 68.5874C121.665 69.2762 123.067 69.7854 123.565 69.3062C124.22 68.6772 122.942 65.6521 121.416 64.1545C121.042 63.7951 120.948 63.7951 120.668 64.1545C120.418 64.484 120.387 64.484 120.512 64.0647C120.73 63.4656 120.294 63.1062 118.861 62.6869C116.866 62.1178 115.932 62.0879 114.343 62.5072ZM116.586 63.4057C116.492 63.4956 116.212 63.5256 115.994 63.4357C115.745 63.3458 115.838 63.256 116.181 63.256C116.524 63.226 116.711 63.3159 116.586 63.4057ZM110.479 66.0115C110.167 66.2811 110.136 66.2511 110.323 65.8318C110.417 65.5323 110.604 65.3825 110.697 65.4724C110.79 65.5623 110.697 65.8019 110.479 66.0115ZM110.604 67.0898C110.51 67.2695 110.261 67.4192 110.105 67.4192C109.949 67.4192 109.98 67.2395 110.198 66.9999C110.635 66.5207 110.946 66.6106 110.604 67.0898ZM109.451 67.8685C109.357 67.9584 109.17 67.8086 109.077 67.5091C108.89 67.0898 108.921 67.0598 109.233 67.3294C109.451 67.5391 109.544 67.7787 109.451 67.8685ZM110.012 72.8105C110.012 73.1699 109.887 73.2897 109.731 73.14C109.575 72.9902 109.544 72.7207 109.638 72.5409C109.949 72.0917 110.012 72.1216 110.012 72.8105ZM112.535 75.0569C112.566 75.3863 112.006 75.2965 111.601 74.9371C111.476 74.8173 111.601 74.7274 111.912 74.7574C112.224 74.7574 112.504 74.9071 112.535 75.0569ZM114.187 75.8057C114.436 75.9554 114.529 76.1052 114.343 76.1052C114.187 76.1052 113.813 75.9554 113.564 75.8057C113.314 75.6559 113.252 75.5061 113.408 75.5061C113.595 75.5061 113.937 75.6559 114.187 75.8057ZM109.233 85.1805C108.921 85.45 108.89 85.4201 109.077 85.0008C109.17 84.7013 109.357 84.5515 109.451 84.6413C109.544 84.7312 109.451 84.9708 109.233 85.1805Z" fill="black"/>
<path d="M79.1465 62.7773C79.2122 63.0857 79.6717 64.2267 80.1969 65.3369C80.7221 66.4162 81.2144 67.4339 81.2472 67.6189C81.3129 67.7731 81.7068 68.6674 82.1335 69.5925C82.5602 70.4868 82.9212 71.3503 82.9212 71.4736C82.9212 71.597 83.151 71.8745 83.4136 72.0904C83.6762 72.3063 83.8075 72.5838 83.7418 72.738C83.5449 73.0156 85.4815 77.117 85.9082 77.2712C86.0395 77.3329 86.0723 77.5796 85.9738 77.8571C85.8425 78.1655 85.9082 78.2889 86.1051 78.1655C86.3349 78.0113 86.4005 78.1655 86.302 78.5047C86.2364 78.844 86.3349 79.2757 86.5975 79.5224C86.8272 79.7691 87.057 80.17 87.1226 80.4167C87.1554 80.6634 87.3524 81.1568 87.5165 81.496C87.6806 81.8352 88.0089 82.6062 88.2714 83.1921C88.534 83.778 89.4531 85.7825 90.2737 87.6328C91.4881 90.2849 91.7507 91.1483 91.521 91.6418C91.324 92.0118 90.6347 93.4612 89.9454 94.9106C89.2561 96.36 88.6653 97.5935 88.5997 97.6552C88.5669 97.7169 87.7791 97.1309 86.86 96.36C80.361 90.8708 69.7262 91.21 63.5554 97.0693C61.6517 98.8579 59.6166 102.158 58.9601 104.44C58.3365 106.691 58.5006 111.193 59.2884 113.444C62.6035 122.85 74.0589 127.167 83.6433 122.634C84.8906 122.048 86.5975 120.815 87.976 119.519L90.2408 117.392L89.1905 116.374L88.1402 115.356L86.3349 117.114C83.5449 119.889 79.2122 121.678 75.3718 121.74C73.8291 121.74 70.5468 120.938 69.398 120.26L68.4789 119.704L74.8138 114.03C88.3043 101.911 89.9783 100.276 90.4706 98.8579C90.7332 98.1178 90.9301 97.3468 90.8973 97.1618C90.8973 96.9459 90.9958 96.8226 91.1271 96.9151C91.4881 97.1309 91.8492 96.175 91.5538 95.7741C91.4553 95.5582 91.521 95.5274 91.7179 95.6507C91.9477 95.7741 92.1446 95.6815 92.1446 95.404C92.2103 94.6331 92.2431 94.5405 93.3919 92.4744C94.0155 91.3642 94.3766 90.254 94.2781 89.9148C94.2125 89.5756 94.2125 89.3906 94.311 89.4831C94.6064 89.7298 95.3613 88.6813 95.3941 88.0337C95.3941 87.7253 95.6239 87.2627 95.8865 86.9852C96.2147 86.7077 96.3132 86.2759 96.1819 85.9059C96.0834 85.5358 96.1162 85.3508 96.2804 85.4433C96.4445 85.5358 97.9544 82.6062 99.6283 78.9365C101.302 75.2667 103.042 71.4736 103.502 70.5485C104.716 68.0815 105.208 66.6321 104.979 66.3545C104.847 66.2312 104.946 66.2312 105.176 66.3545C105.372 66.4779 105.569 66.4162 105.569 66.2312C105.569 66.0461 105.93 65.121 106.39 64.1959C106.849 63.2707 107.211 62.4381 107.211 62.3764C107.211 62.2839 106.685 62.2222 106.062 62.2222C104.913 62.2222 104.88 62.2839 103.6 64.8126C102.878 66.262 102.287 67.4955 102.287 67.6189C102.287 67.7114 101.828 68.6982 101.302 69.8084C100.744 70.9186 100.383 71.9671 100.515 72.1521C100.646 72.3371 100.613 72.3988 100.416 72.3063C100.121 72.1213 99.0703 74.4341 99.2673 74.9275C99.3001 75.0817 99.2016 75.1742 99.0703 75.1742C98.6765 75.1742 97.9872 76.7161 98.1841 77.0553C98.3154 77.2095 98.2498 77.3329 98.0856 77.3329C97.6589 77.3329 95.3613 82.5754 95.6239 82.9763C95.7224 83.1304 95.6895 83.1921 95.4926 83.0996C95.3285 83.0071 94.7377 83.9014 94.2125 85.1041C93.2278 87.3861 92.44 88.1262 92.44 86.831C92.44 86.2451 92.3744 86.2143 92.079 86.5843C91.8164 86.9544 91.7836 86.9235 91.9148 86.3993C92.0461 86.0601 91.7836 85.1349 91.3568 84.2406C90.9301 83.408 90.3065 82.0819 89.9783 81.2802C89.65 80.4167 89.2561 79.8924 89.0592 80.0158C88.8623 80.1391 88.7966 80.0158 88.9279 79.6766C89.0592 79.3682 88.8294 78.5356 88.3699 77.7029C87.9432 76.9011 87.4837 75.9143 87.3524 75.4826C87.2211 75.0509 86.6959 73.879 86.1707 72.8614C85.6784 71.8437 84.9563 70.2093 84.5624 69.2225C84.1685 68.2665 83.709 67.4647 83.5449 67.4647C83.3479 67.4647 83.2823 67.3413 83.3808 67.1872C83.6433 66.7863 82.1006 63.7333 81.7724 64.0108C81.6083 64.1342 81.6083 64.0417 81.7396 63.8566C82.1991 63.1165 81.3129 62.2222 80.1312 62.2222C79.245 62.2222 79.0481 62.3147 79.1465 62.7773ZM83.9716 69.3767C83.7418 69.5925 83.5777 69.6234 83.5777 69.4383C83.5777 69.2533 83.6762 69.0066 83.8075 68.9141C83.9059 68.7907 84.1029 68.7599 84.2013 68.8524C84.267 68.9449 84.1685 69.1916 83.9716 69.3767ZM85.8753 73.3239C86.0723 73.6632 86.1379 73.9407 86.0723 73.9407C85.9738 73.9407 85.744 73.6632 85.5471 73.3239C85.3502 72.9847 85.2845 72.7072 85.3502 72.7072C85.4486 72.7072 85.6784 72.9847 85.8753 73.3239ZM98.02 79.1832C98.2169 79.5224 98.2826 79.7999 98.2169 79.7999C98.1185 79.7999 97.8887 79.5224 97.6918 79.1832C97.4948 78.844 97.4292 78.5664 97.4948 78.5664C97.5933 78.5664 97.8231 78.844 98.02 79.1832ZM95.6239 85.4125C95.5254 85.6592 95.4269 85.5667 95.4269 85.2274C95.3941 84.8882 95.4926 84.7032 95.5911 84.8265C95.6895 84.9191 95.7224 85.1966 95.6239 85.4125ZM91.4553 94.3247C91.4553 94.5097 91.324 94.5405 91.1271 94.448C90.963 94.3555 90.7988 94.1088 90.7988 93.9546C90.7988 93.7696 90.963 93.7387 91.1271 93.8313C91.324 93.9238 91.4553 94.1705 91.4553 94.3247ZM80.6236 96.2058C82.9541 97.1926 85.8753 99.3821 85.8753 100.122C85.8753 100.431 84.4968 101.88 82.8556 103.391C81.1816 104.871 76.8161 108.88 73.1727 112.303L66.5095 118.471L65.1966 117.268C63.4898 115.695 61.7501 112.427 61.4547 110.299C60.7654 104.964 63.818 99.2896 68.7415 96.8226C71.3674 95.4965 72.7131 95.219 76.0283 95.3115C78.1947 95.3732 79.2122 95.589 80.6236 96.2058Z" fill="#42576E"/>
<path d="M130.421 76.1111C130.421 89.6075 130.449 90 130.946 90C131.25 90 131.554 89.8188 131.609 89.6075C131.72 89.3056 131.775 89.3056 131.775 89.6075C131.803 89.8188 131.996 90 132.217 90C132.576 90 132.632 88.2488 132.632 76.1111V62.2222H131.526H130.421V76.1111Z" fill="black"/>
<path d="M29.8421 83.7142V85.2061H35.9276H42.0132L42.0789 104.81L42.1776 124.444H43.6579H45.1382L45.2368 104.81L45.3026 85.2061H51.3882H57.4737V83.7142V82.2222H43.6579H29.8421V83.7142Z" fill="black"/>
<path d="M123.901 82.5839C123.802 82.7948 123.769 92.2579 123.802 103.62L123.901 124.264H125.228H126.554L126.72 115.222C126.885 106.784 126.952 106.061 127.648 104.494C129.24 100.877 131.527 98.5867 135.34 96.899C137.33 95.9949 137.728 95.9346 140.977 95.9346C144.293 95.9346 144.591 95.9949 146.779 96.9593C151.156 98.9182 154.24 102.716 154.903 106.995C155.069 108.05 155.234 112.39 155.234 116.669V124.444L156.66 124.354L158.053 124.264V115.072C158.053 108.08 157.953 105.518 157.588 104.373C155.4 97.2908 148.47 92.6497 140.977 93.162C138.225 93.373 135.473 94.1264 133.252 95.3319C131.428 96.2963 128.709 98.7374 127.847 100.154C127.515 100.726 127.118 101.209 126.985 101.209C126.819 101.209 126.72 96.9292 126.72 91.7154V82.2222H125.393C124.631 82.2222 123.968 82.3729 123.901 82.5839Z" fill="black"/>
<path d="M105.39 93.5559C100.449 94.3664 95.8003 97.5483 93.4922 101.721C91.1517 105.984 91.1517 111.747 93.4922 116.01C96.9706 122.344 104.902 125.676 112.509 124.025C116.183 123.214 120.214 120.753 122.067 118.171C122.587 117.481 122.587 117.421 121.611 116.49L120.604 115.529L118.458 117.541C115.988 119.852 113.68 121.023 110.624 121.503C106.365 122.194 101.554 120.663 98.596 117.691C94.0774 113.128 93.4272 107.004 96.9055 102.021C98.4659 99.8298 100.124 98.5089 102.789 97.3382C104.772 96.4677 105.13 96.4076 108.641 96.4076C112.119 96.4076 112.509 96.4677 114.33 97.2782C115.565 97.8185 117.093 98.9292 118.458 100.19L120.604 102.201L121.644 101.211L122.684 100.22L121.774 99.1093C120.474 97.5183 117.028 95.1769 114.85 94.4264C111.794 93.3758 108.478 93.0756 105.39 93.5559Z" fill="black"/>
</svg>
